<?xml version="1.0" encoding="utf-8"?>
<!-- Generator: Adobe Illustrator 22.0.0, SVG Export Plug-In . SVG Version: 6.00 Build 0)  -->
<svg version="1.1" id="Layer_1" xmlns="http://www.w3.org/2000/svg" xmlns:xlink="http://www.w3.org/1999/xlink" x="0px" y="0px"
	 viewBox="0 0 171.7 50" style="enable-background:new 0 0 171.7 50;" xml:space="preserve">
<style type="text/css">
	.st0{fill:#0093CF;}
</style>
<path class="st0" d="M20.9,36.1h-2.7L17.7,33h-3.3l-0.5,3.1h-2.5l2.8-17.3h4L20.9,36.1z M14.7,30.7h2.6l-1.3-8.8h0L14.7,30.7z
	 M30.1,31v1c0,2.8-1.4,4.4-4.1,4.4c-2.7,0-4.1-1.6-4.1-4.4v-9c0-2.8,1.4-4.4,4.1-4.4c2.7,0,4.1,1.6,4.1,4.4v1h-2.6v-1.1
	c0-1.2-0.5-1.7-1.4-1.7c-0.9,0-1.4,0.5-1.4,1.7v9.3c0,1.2,0.5,1.7,1.4,1.7c0.9,0,1.4-0.4,1.4-1.7V31H30.1z M35.4,18.6
	c2.6,0,4,1.6,4,4.4v1h-2.6v-1.1c0-1.2-0.5-1.7-1.4-1.7c-0.9,0-1.4,0.5-1.4,1.7c0,1.3,0.5,2.2,2.3,3.8c2.3,2,3,3.4,3,5.4
	c0,2.8-1.4,4.4-4.1,4.4c-2.7,0-4.1-1.6-4.1-4.4v-1h2.6v1.1c0,1.2,0.5,1.7,1.4,1.7c0.9,0,1.4-0.4,1.4-1.7c0-1.3-0.5-2.2-2.3-3.8
	c-2.3-2-3-3.4-3-5.4C31.4,20.2,32.7,18.6,35.4,18.6z M44.6,18.6c2.6,0,4,1.6,4,4.4v1h-2.6v-1.1c0-1.2-0.5-1.7-1.4-1.7
	c-0.9,0-1.4,0.5-1.4,1.7c0,1.3,0.5,2.2,2.3,3.8c2.3,2,3,3.4,3,5.4c0,2.8-1.4,4.4-4.1,4.4c-2.7,0-4.1-1.6-4.1-4.4v-1h2.6v1.1
	c0,1.2,0.5,1.7,1.4,1.7c0.9,0,1.4-0.4,1.4-1.7c0-1.3-0.5-2.2-2.3-3.8c-2.3-2-3-3.4-3-5.4C40.6,20.2,42,18.6,44.6,18.6z M62.2,23.7
	l-0.5,2.1h-0.6l2.1-9.7h0.9l2.2,9.7h-0.6l-0.5-2.1H62.2z M62.3,23.1h2.8l-1.4-6.3L62.3,23.1z M69.6,16.2c1.5,0,2.1,1,2.1,2.4v4.9
	c0,1.4-0.6,2.4-2.1,2.4h-2.1v-9.7H69.6z M69.6,25.3c1.1,0,1.5-0.7,1.5-1.8v-4.9c0-1.1-0.5-1.8-1.5-1.8h-1.5v8.5H69.6z M76.2,25.8
	h-0.6l-2-8.5v8.6h-0.6v-9.7h0.9l2,8.5l2-8.5h0.9v9.7h-0.6v-8.6L76.2,25.8z M80.7,16.2v9.7H80v-9.7H80.7z M82.5,25.8h-0.6v-9.7h0.8
	l2.9,8.2v-8.2h0.6v9.7h-0.7l-3-8.6V25.8z M88.1,16.2v9.7h-0.6v-9.7H88.1z M93.4,18.5v0.2h-0.6v-0.2c0-1-0.4-1.8-1.4-1.8
	c-1,0-1.4,0.8-1.4,1.8c0,2.3,3.5,2.4,3.5,5.1c0,1.4-0.6,2.4-2.1,2.4c-1.5,0-2.1-1-2.1-2.4V23h0.6v0.5c0,1,0.4,1.8,1.5,1.8
	c1.1,0,1.5-0.7,1.5-1.8c0-2.3-3.5-2.4-3.5-5.1c0-1.4,0.6-2.4,2.1-2.4C92.8,16.1,93.4,17.1,93.4,18.5z M96.2,25.8v-9.1h-2v-0.6h4.6
	v0.6h-2v9.1H96.2z M101.8,16.2c1.5,0,2.1,0.8,2.1,2.2v0.8c0,1.1-0.4,1.8-1.4,2c1,0.2,1.4,0.9,1.4,2v1.5c0,0.4,0,0.8,0.2,1.2h-0.7
	c-0.2-0.3-0.2-0.6-0.2-1.2v-1.5c0-1.3-0.7-1.6-1.8-1.6h-1v4.3h-0.6v-9.7H101.8z M101.5,20.9c1.1,0,1.8-0.3,1.8-1.6v-0.9
	c0-1-0.4-1.7-1.4-1.7h-1.4v4.2H101.5z M106.2,23.7l-0.5,2.1h-0.6l2.1-9.7h0.9l2.2,9.7h-0.6l-0.5-2.1H106.2z M106.3,23.1h2.8
	l-1.4-6.3L106.3,23.1z M115.5,18.5v0.8h-0.6v-0.8c0-1-0.4-1.8-1.5-1.8c-1.1,0-1.5,0.8-1.5,1.8v5c0,1,0.4,1.8,1.5,1.8
	c1.1,0,1.5-0.8,1.5-1.8v-1.1h0.6v1.1c0,1.3-0.6,2.4-1.9,2.4v0.4c0.6,0,1,0.3,1,0.8c0,0.6-0.5,0.9-1.2,0.9c-0.8,0-1.2-0.3-1.2-0.9V27
	h0.4v0.1c0,0.3,0.3,0.5,0.8,0.5c0.5,0,0.8-0.2,0.8-0.6c0-0.3-0.3-0.5-0.8-0.5h-0.1v-0.6c-1.4-0.1-1.9-1.1-1.9-2.4v-4.9
	c0-1.4,0.6-2.4,2.1-2.4C114.9,16.1,115.5,17.1,115.5,18.5z M117.6,23.7l-0.5,2.1h-0.6l2.1-9.7h0.9l2.2,9.7h-0.6l-0.5-2.1H117.6z
	 M119.8,15.1c0.2,0,0.4-0.2,0.5-0.4l0.3,0.2c-0.2,0.4-0.4,0.6-0.8,0.6c-0.5,0-0.8-0.5-1.3-0.5c-0.3,0-0.4,0.2-0.6,0.4l-0.3-0.2
	c0.2-0.4,0.5-0.6,0.9-0.7C119,14.6,119.4,15.1,119.8,15.1z M117.7,23.1h2.8l-1.4-6.3L117.7,23.1z M122.8,18.5c0-1.4,0.6-2.4,2.1-2.4
	c1.5,0,2.1,1,2.1,2.4v4.9c0,1.4-0.6,2.4-2.1,2.4c-1.5,0-2.1-1-2.1-2.4V18.5z M123.5,23.5c0,1,0.4,1.8,1.5,1.8c1.1,0,1.5-0.8,1.5-1.8
	v-5c0-1-0.4-1.8-1.5-1.8c-1.1,0-1.5,0.8-1.5,1.8V23.5z M134.7,18.5v0.8h-0.6v-0.8c0-1-0.4-1.8-1.5-1.8c-1.1,0-1.5,0.8-1.5,1.8v5
	c0,1,0.4,1.8,1.5,1.8c1.1,0,1.5-0.8,1.5-1.8v-1.1h0.6v1.1c0,1.4-0.6,2.4-2.1,2.4c-1.5,0-2.1-1-2.1-2.4v-4.9c0-1.4,0.6-2.4,2.1-2.4
	C134.1,16.1,134.7,17.1,134.7,18.5z M139.1,20.6v0.6h-2.6v4h3.2v0.6h-3.8v-9.7h3.8v0.6h-3.2v3.9H139.1z M141.4,25.8h-0.6v-9.7h0.8
	l2.9,8.2v-8.2h0.6v9.7h-0.7l-3-8.6V25.8z M148,25.8v-9.1h-2v-0.6h4.6v0.6h-2v9.1H148z M153.6,16.2c1.5,0,2.1,0.8,2.1,2.2v0.8
	c0,1.1-0.4,1.8-1.4,2c1,0.2,1.4,0.9,1.4,2v1.5c0,0.4,0,0.8,0.2,1.2h-0.7c-0.2-0.3-0.2-0.6-0.2-1.2v-1.5c0-1.3-0.7-1.6-1.8-1.6h-1
	v4.3h-0.6v-9.7H153.6z M153.3,20.9c1.1,0,1.8-0.3,1.8-1.6v-0.9c0-1-0.4-1.7-1.4-1.7h-1.4v4.2H153.3z M158,23.7l-0.5,2.1h-0.6
	l2.1-9.7h0.9l2.2,9.7h-0.6l-0.5-2.1H158z M158.1,23.1h2.8l-1.4-6.3L158.1,23.1z M163.2,25.8v-9.7h0.6v9.1h3v0.6H163.2z M61.3,30.1
	h2.4c1.5,0,2.3,0.8,2.3,2.4v4.9c0,1.5-0.7,2.4-2.3,2.4h-2.4V30.1z M62.8,31.5v6.9h0.9c0.5,0,0.8-0.2,0.8-0.9v-5
	c0-0.7-0.3-0.9-0.8-0.9H62.8z M67,32.4c0-1.5,0.8-2.4,2.3-2.4c1.5,0,2.3,0.9,2.3,2.4v5c0,1.5-0.8,2.4-2.3,2.4
	c-1.5,0-2.3-0.9-2.3-2.4V32.4z M68.5,37.5c0,0.7,0.3,1,0.8,1c0.5,0,0.8-0.3,0.8-1v-5.2c0-0.7-0.3-1-0.8-1c-0.5,0-0.8,0.3-0.8,1V37.5
	z M77,30c1.5,0,2.2,0.9,2.2,2.4v0.3h-1.4v-0.4c0-0.7-0.3-1-0.8-1c-0.5,0-0.8,0.3-0.8,1c0,0.7,0.3,1.2,1.3,2.1c1.3,1.1,1.7,1.9,1.7,3
	c0,1.5-0.8,2.4-2.3,2.4c-1.5,0-2.3-0.9-2.3-2.4v-0.6h1.4v0.7c0,0.7,0.3,0.9,0.8,0.9c0.5,0,0.8-0.2,0.8-0.9c0-0.7-0.3-1.2-1.3-2.1
	c-1.3-1.1-1.7-1.9-1.7-3C74.8,30.9,75.5,30,77,30z M80.3,30.1h1.5v9.7h-1.5V30.1z M85.1,30c1.5,0,2.2,0.9,2.2,2.4v0.3h-1.4v-0.4
	c0-0.7-0.3-1-0.8-1c-0.5,0-0.8,0.3-0.8,1c0,0.7,0.3,1.2,1.3,2.1c1.3,1.1,1.7,1.9,1.7,3c0,1.5-0.8,2.4-2.3,2.4
	c-1.5,0-2.3-0.9-2.3-2.4v-0.6h1.4v0.7c0,0.7,0.3,0.9,0.8,0.9c0.5,0,0.8-0.2,0.8-0.9c0-0.7-0.3-1.2-1.3-2.1c-1.3-1.1-1.7-1.9-1.7-3
	C82.8,30.9,83.6,30,85.1,30z M87.9,30.1h4.7v1.4H91v8.3h-1.5v-8.3h-1.6V30.1z M94.9,34.2H97v1.4h-2.1v2.8h2.6v1.4h-4.1v-9.7h4.1v1.4
	h-2.6V34.2z M101.8,37L101.8,37l1-6.9h2.1v9.7h-1.4v-6.9h0l-1,6.9H101l-1.1-6.8h0v6.8h-1.3v-9.7h2.1L101.8,37z M111.1,39.8h-1.5
	l-0.3-1.8h-1.9l-0.3,1.8h-1.4l1.5-9.7h2.2L111.1,39.8z M107.7,36.7h1.5l-0.7-4.9h0L107.7,36.7z M114.2,30.1h2.4
	c1.5,0,2.3,0.8,2.3,2.4v4.9c0,1.5-0.7,2.4-2.3,2.4h-2.4V30.1z M115.8,31.5v6.9h0.9c0.5,0,0.8-0.2,0.8-0.9v-5c0-0.7-0.3-0.9-0.8-0.9
	H115.8z M121.5,34.2h2.1v1.4h-2.1v2.8h2.6v1.4H120v-9.7h4.1v1.4h-2.6V34.2z M129.5,30c1.5,0,2.2,0.9,2.2,2.4v0.3h-1.4v-0.4
	c0-0.7-0.3-1-0.8-1c-0.5,0-0.8,0.3-0.8,1c0,0.7,0.3,1.2,1.3,2.1c1.3,1.1,1.7,1.9,1.7,3c0,1.5-0.8,2.4-2.3,2.4
	c-1.5,0-2.3-0.9-2.3-2.4v-0.6h1.4v0.7c0,0.7,0.3,0.9,0.8,0.9c0.5,0,0.8-0.2,0.8-0.9c0-0.7-0.3-1.2-1.3-2.1c-1.3-1.1-1.7-1.9-1.7-3
	C127.3,30.9,128.1,30,129.5,30z M137.7,39.8h-1.5l-0.3-1.8h-1.9l-0.3,1.8h-1.4l1.5-9.7h2.2L137.7,39.8z M134.2,36.7h1.5l-0.7-4.9h0
	L134.2,36.7z M140,30.1v7.5c0,0.7,0.3,0.9,0.8,0.9c0.5,0,0.8-0.2,0.8-0.9v-7.5h1.4v7.4c0,1.5-0.8,2.4-2.3,2.4
	c-1.5,0-2.3-0.9-2.3-2.4v-7.4H140z M142.4,28.1l-1.4,1.5h-1l0.9-1.5H142.4z M144.2,30.1h2.4c1.5,0,2.3,0.8,2.3,2.4v4.9
	c0,1.5-0.7,2.4-2.3,2.4h-2.4V30.1z M145.7,31.5v6.9h0.9c0.5,0,0.8-0.2,0.8-0.9v-5c0-0.7-0.3-0.9-0.8-0.9H145.7z M151.5,34.2h2.1v1.4
	h-2.1v2.8h2.6v1.4H150v-9.7h4.1v1.4h-2.6V34.2z M155.2,39.8v-1.5h1.5v1.3l-0.7,1.5h-0.6l0.4-1.4H155.2z M160.2,30.1h1.5v9.7h-1.5
	V30.1z M167.4,32.5v1.3c0,1.5-0.7,2.4-2.3,2.4h-0.7v3.6h-1.5v-9.7h2.2C166.7,30.1,167.4,30.9,167.4,32.5z M164.4,31.5v3.3h0.7
	c0.5,0,0.7-0.2,0.7-0.9v-1.4c0-0.7-0.3-0.9-0.7-0.9H164.4z M50.4,43.6H4.5l0-23.8c0-4.5,3.6-8.1,8.1-8.1h43.2v26.6
	C55.7,41.2,53.3,43.6,50.4,43.6z M53.2,14.2H12.5c-3.1,0-5.6,2.5-5.6,5.6l0,21.4h24.6h16.7h2.2c1.5,0,2.8-1.3,2.8-2.8V14.2z"/>
</svg>
