<?xml version="1.0" encoding="UTF-8"?>
<svg width="219px" height="38px" viewBox="0 0 219 38" version="1.1" xmlns="http://www.w3.org/2000/svg" xmlns:xlink="http://www.w3.org/1999/xlink">
    <!-- Generator: Sketch 63.1 (92452) - https://sketch.com -->
    <title>logo_sns-07</title>
    <desc>Created with Sketch.</desc>
    <defs>
        <linearGradient x1="63.6452736%" y1="43.6360585%" x2="107.425539%" y2="18.8910819%" id="linearGradient-1">
            <stop stop-color="#CC0000" offset="0%"></stop>
            <stop stop-color="#80171B" offset="100%"></stop>
        </linearGradient>
        <linearGradient x1="35.5333333%" y1="92.5127497%" x2="49.785738%" y2="52.3996287%" id="linearGradient-2">
            <stop stop-color="#096F35" offset="0%"></stop>
            <stop stop-color="#059242" offset="70%"></stop>
        </linearGradient>
        <linearGradient x1="9.91098546%" y1="70.1793478%" x2="94.7891761%" y2="21.4296849%" id="linearGradient-3">
            <stop stop-color="#059242" offset="0%"></stop>
            <stop stop-color="#2F9936" offset="3.172159%"></stop>
            <stop stop-color="#5AA12A" offset="7.004586%"></stop>
            <stop stop-color="#81A720" offset="11.14%"></stop>
            <stop stop-color="#A1AD17" offset="15.53%"></stop>
            <stop stop-color="#BBB110" offset="20.23%"></stop>
            <stop stop-color="#D0B50A" offset="25.38%"></stop>
            <stop stop-color="#DEB706" offset="31.2%"></stop>
            <stop stop-color="#E6B904" offset="38.26%"></stop>
            <stop stop-color="#E9B903" offset="50%"></stop>
            <stop stop-color="#E8B403" offset="56%"></stop>
            <stop stop-color="#E6A403" offset="63.5%"></stop>
            <stop stop-color="#E28B02" offset="71.8%"></stop>
            <stop stop-color="#DC6702" offset="80.69%"></stop>
            <stop stop-color="#D53901" offset="90.04%"></stop>
            <stop stop-color="#CC0200" offset="99.65%"></stop>
            <stop stop-color="#CC0000" offset="100%"></stop>
        </linearGradient>
    </defs>
    <g id="Page-1" stroke="none" stroke-width="1" fill="none" fill-rule="evenodd">
        <g id="Artboard" transform="translate(-203.000000, -22.000000)" fill-rule="nonzero">
            <g id="logo_sns-07" transform="translate(203.000000, 22.000000)">
                <g id="Group">
                    <polygon id="Path" fill="#504F51" points="47.2199972 37.6199978 46.6799972 37.6199978 46.6799972 0.419999975 47.2199972 0.479999971"></polygon>
                    <g id="Path">
                        <path d="M18.8999989,0.419999975 C10.7399994,0.419999975 3.77999977,5.69999966 1.31999992,13.0199992 C2.45999985,12.5399993 11.5199993,5.45999967 20.9399988,10.9799993 C35.3999979,19.1999989 27.0599984,34.139998 26.3999984,36.0599979 C32.939998,33.179998 37.4999978,26.6399984 37.4999978,19.0199989 C37.4999978,8.75999948 29.1599983,0.419999975 18.8999989,0.419999975 Z" fill="url(#linearGradient-1)"></path>
                        <path d="M18.8999989,37.6199978 C27.0599984,37.6199978 34.019998,32.3399981 36.4799978,25.0199985 C35.3399979,25.4999985 21.8999987,34.319998 12.2399993,26.0999984 C7.91999953,22.4399987 7.73999954,16.379999 8.69999948,10.3799994 C9.47999943,5.39999968 10.7399994,3.83999977 11.3999993,1.97999988 C4.85999971,4.85999971 0.299999982,11.3999993 0.299999982,18.9599989 C0.299999982,29.2799983 8.63999949,37.6199978 18.8999989,37.6199978 Z" fill="url(#linearGradient-2)"></path>
                        <path d="M9.89999941,13.0199992 C6.29999962,17.459999 6.59999961,23.1599986 3.59999979,23.6399986 C2.45999985,23.8199986 0.539999968,22.7999986 0.359999979,19.6799988 C0.659999961,27.8399983 6.23999963,34.6799979 13.7399992,36.8399978 C11.9999993,34.379998 11.3399993,33.179998 11.3399993,29.9399982 C11.3399993,21.7799987 17.8799989,15.7799991 25.7399985,15.0599991 C31.86,14.5199991 34.86,15.8399991 37.4999978,19.6199988 C37.4999978,19.4399988 37.4999978,19.1999989 37.4999978,18.9599989 C37.4999978,13.7999992 35.3999979,9.11999946 31.9799981,5.75999966 C30.7799982,4.67999972 18.5399989,2.27999986 9.89999941,13.0199992 Z" fill="url(#linearGradient-3)"></path>
                    </g>
                </g>
                <g id="Group" transform="translate(56.399997, 4.200000)" fill="#504F51">
                    <g id="Path">
                        <path d="M8.87999947,27.6599984 C6.89999959,27.6599984 5.0999997,27.1199984 3.65999978,26.0999984 L3.65999978,26.1599984 L2.75999984,25.4399985 C0.959999943,23.9999986 0.419999975,21.4799987 0.299999982,20.5199988 L0.239999986,20.0399988 L4.49999973,19.1399989 L4.61999972,19.6799988 C4.73999999,20.2799988 5.51999967,23.3399986 8.93999947,23.3399986 C10.7999994,23.3399986 11.8799993,22.4399987 12.3599993,21.8999987 C12.7199992,21.3599987 13.0199992,20.5199988 13.0199992,20.0399988 C13.0199992,19.3799988 12.8999992,18.8999989 12.6599992,18.6599989 L12.5999992,18.5999989 C12.24,18.1199989 10.1999994,16.739999 9.35999944,16.139999 C8.93999947,15.959999 8.27999951,15.4799991 7.97999952,15.1199991 C5.15999969,13.2599992 3.23999999,11.8799993 2.57999985,10.92 C1.79999989,9.77999942 1.37999992,8.3999995 1.37999992,7.31999956 C1.37999992,5.69999966 2.09999987,3.95999976 3.3599998,2.57999985 C5.0999997,0.779999954 6.95999959,0.419999975 9.35999944,0.419999975 C11.0399993,0.419999975 12.7199992,1.01999994 14.2199992,2.09999987 C15.5999991,3.17999981 16.74,5.15999969 17.099999,7.25999957 L17.219999,7.79999954 L12.9599992,8.69999948 L12.8399992,8.15999951 C12.4799993,6.35999962 10.8599994,4.79999971 9.35999944,4.79999971 C7.55999955,4.79999971 7.01999958,5.0399997 6.53999961,5.57999967 C6.29999962,5.81999965 5.81999965,6.47999961 5.81999965,7.25999957 C5.81999965,7.49999955 6.11999964,8.09999952 6.23999999,8.3399995 C7.31999956,9.29999945 8.4599995,10.0799994 9.59999943,10.8599994 C10.1399994,11.2199993 10.6199994,11.5799993 11.1599993,11.9399993 C13.0799992,13.2599992 15.1199991,14.8199991 15.959999,15.7799991 C16.919999,16.92 17.399999,18.5399989 17.399999,20.2199988 C17.399999,21.7199987 16.799999,23.4599986 15.7799991,24.6599985 C14.3399991,25.9799985 12.1199993,27.6599984 8.87999947,27.6599984 Z"></path>
                        <polygon points="39.6599976 27.5399984 35.8199979 27.5399984 24.4199985 9.53999943 24.4199985 27.5399984 20.0999988 27.5399984 20.0999988 0.539999968 23.9399986 0.539999968 35.2199979 18.3599989 35.2199979 0.539999968 39.6599976 0.539999968 39.6599976 27.5399984"></polygon>
                        <path d="M51.059997,27.6599984 C49.0799971,27.6599984 47.2799972,27.1199984 45.8399973,26.0999984 L45.8399973,26.1599984 L44.9399973,25.4399985 C43.1399974,23.9999986 42.5999975,21.4799987 42.4799975,20.5199988 L42.4199975,20.0399988 L46.6799972,19.1399989 L46.7999972,19.6799988 C46.9199975,20.2799988 47.6999972,23.3399986 51.119997,23.3399986 C52.9799968,23.3399986 54.0599968,22.4399987 54.5399967,21.8999987 C54.8999967,21.3599987 55.1999967,20.5199988 55.1999967,20.0399988 C55.1999967,19.3799988 55.0799967,18.8999989 54.8399967,18.6599989 L54.7799967,18.5999989 C54.4199975,18.1199989 52.3799969,16.739999 51.5399969,16.139999 C51.119997,15.959999 50.459997,15.4799991 50.159997,15.1199991 C47.3399972,13.2599992 45.4199975,11.8799993 44.7599973,10.92 C43.9799974,9.77999942 43.5599974,8.3999995 43.5599974,7.31999956 C43.5599974,5.69999966 44.2799974,3.95999976 45.5399973,2.57999985 C47.2799972,0.779999954 49.1399971,0.419999975 51.5399969,0.419999975 C53.2199968,0.419999975 54.8999967,1.01999994 56.3999966,2.09999987 C57.7799966,3.17999981 58.9199975,5.15999969 59.2799965,7.25999957 L59.3999965,7.79999954 L55.1399967,8.69999948 L55.0199967,8.15999951 C54.6599967,6.35999962 53.0399968,4.79999971 51.5399969,4.79999971 C49.739997,4.79999971 49.1999971,5.0399997 48.7199971,5.57999967 C48.4799971,5.81999965 47.9999971,6.47999961 47.9999971,7.25999957 C47.9999971,7.49999955 48.2999971,8.09999952 48.4199975,8.3399995 C49.499997,9.29999945 50.639997,10.0799994 51.7799969,10.8599994 C52.3199969,11.2199993 52.7999969,11.5799993 53.3399968,11.9399993 C55.2599967,13.2599992 57.2999966,14.8199991 58.1399965,15.7799991 C59.0999965,16.92 59.5799964,18.5399989 59.5799964,20.2199988 C59.5799964,21.7199987 58.9799965,23.4599986 57.9599965,24.6599985 C56.5199966,25.9799985 54.2999968,27.6599984 51.059997,27.6599984 Z"></path>
                    </g>
                    <g transform="translate(64.199996, 1.200000)">
                        <path d="M5.0399997,2.99999982 C5.0399997,1.79999998 4.49999973,1.07999994 3.2999998,1.07999994 C2.09999987,1.07999994 1.43999991,1.85999989 1.43999991,2.81999983 C1.43999991,5.75999966 6.17999963,4.13999975 6.17999963,7.55999955 C6.17999963,9.41999944 4.9799997,10.4399994 3.23999981,10.4399994 C1.37999992,10.4399994 0.419999975,9.47999943 0.419999975,7.55999955 L0.419999975,7.19999957 L1.31999992,7.19999957 L1.31999992,7.55999955 C1.31999992,8.81999947 1.97999988,9.65999942 3.23999981,9.65999942 C4.49999973,9.65999942 5.33999968,9.05999946 5.33999968,7.67999954 C5.33999968,4.79999998 0.599999964,6.41999962 0.599999964,2.87999983 C0.599999964,1.31999992 1.6199999,0.299999982 3.2999998,0.299999982 C5.0999997,0.299999982 5.93999965,1.25999992 5.93999965,2.99999982 L5.0399997,2.99999982 Z" id="Path"></path>
                        <polygon id="Path" points="7.31999956 0.479999971 12.1799993 0.479999971 12.1799993 1.19999993 8.21999951 1.19999993 8.21999951 4.79999971 11.9399993 4.79999971 11.9399993 5.51999967 8.21999951 5.51999967 8.21999951 9.53999943 12.2999993 9.53999943 12.2999993 10.2599994 7.31999956 10.2599994"></polygon>
                        <path d="M13.3799992,0.479999971 L16.319999,0.479999971 C17.9399989,0.479999971 18.8399989,1.43999991 18.8399989,2.93999982 C18.8399989,4.13999975 18.3599989,5.15999969 17.099999,5.39999968 L17.099999,5.39999968 C18.2999989,5.51999967 18.7199989,6.17999963 18.7799989,7.73999954 L18.7799989,8.81999947 C18.7799989,9.35999944 18.8399989,9.89999941 19.1999989,10.2599994 L18.1799989,10.2599994 C17.9999989,9.89999941 17.9399989,9.41999944 17.9399989,8.87999947 L17.9399989,8.03999952 C17.8799992,6.29999962 17.579999,5.75999966 16.019999,5.75999966 L14.3399991,5.75999966 L14.3399991,10.1999994 L13.4399992,10.1999994 L13.4399992,0.479999971 L13.3799992,0.479999971 Z M14.2799991,5.0399997 L15.7799991,5.0399997 C17.159999,5.0399997 17.9999989,4.37999974 17.9999989,3.11999981 C17.9999989,1.91999989 17.519999,1.19999993 15.8999991,1.19999993 L14.2799991,1.19999993 L14.2799991,5.0399997 Z" id="Shape"></path>
                        <polygon id="Path" points="19.4999988 0.479999971 20.4599988 0.479999971 22.6199987 9.29999945 22.6199987 9.29999945 24.7799985 0.479999971 25.7399985 0.479999971 23.1599986 10.2599994 22.0799987 10.2599994"></polygon>
                        <polygon id="Path" points="26.5799984 0.479999971 27.4799984 0.479999971 27.4799984 10.2599994 26.5799984 10.2599994"></polygon>
                        <path d="M31.9799983,10.4399994 C30.0599982,10.3199994 28.9799983,8.81999947 28.9799983,5.39999968 C28.9799983,1.91999989 30.1199982,0.359999979 32.0999981,0.359999979 C34.079998,0.359999979 34.9199979,1.79999989 34.9199979,3.35999998 L34.019998,3.35999998 C34.019998,2.03999988 33.359998,1.07999994 32.0999981,1.07999994 C30.7199982,1.07999994 29.8799982,2.21999987 29.8799982,5.39999968 C29.8799982,8.57999949 30.7199982,9.71999942 32.0999981,9.71999942 C33.359998,9.71999942 34.019998,8.63999949 34.139998,6.95999959 L35.0399979,6.95999959 C34.9199979,8.99999946 34.019998,10.2599994 32.5199981,10.4399994 L32.0399981,11.0399993 L32.0399981,11.0399993 C32.1599981,10.9799993 32.3399981,10.9799993 32.5199981,10.9799993 C33.119998,10.9799993 33.599998,11.3999993 33.599998,11.8799993 C33.599998,12.6599992 32.759998,13.0199992 32.1599981,13.0199992 C31.7399981,13.0199992 31.1999981,12.8999992 30.9599982,12.7199992 L31.1399981,12.2999993 C31.3799981,12.4199993 31.6799981,12.4799993 31.9799983,12.4799993 C32.6399981,12.4799993 32.939998,12.1799993 32.939998,11.8799993 C32.939998,11.5199993 32.5799981,11.3999993 32.2199981,11.3999993 C31.9799983,11.3999993 31.7399981,11.4599993 31.6199981,11.5199993 L31.4399981,11.2799993 L31.9799983,10.4399994 Z" id="Path"></path>
                        <path d="M39.2399977,0.299999982 C41.2199975,0.299999982 42.3599975,1.85999989 42.3599975,5.33999968 C42.3599975,8.81999947 41.2199975,10.3799994 39.2399977,10.3799994 C37.2599978,10.3799994 36.1199978,8.81999947 36.1199978,5.33999968 C36.1199978,1.85999989 37.1999978,0.299999982 39.2399977,0.299999982 Z M39.2399977,9.65999942 C40.6199976,9.65999942 41.4599975,8.51999994 41.4599975,5.33999968 C41.4599975,2.15999987 40.6199976,1.01999994 39.2399977,1.01999994 C37.8599977,1.01999994 37.0199978,2.15999987 37.0199978,5.33999968 C36.9599978,8.51999994 37.7999977,9.65999942 39.2399977,9.65999942 Z" id="Shape"></path>
                        <polygon id="Path" points="47.0999972 0.479999971 48.2999971 0.479999971 52.0199969 8.99999946 52.0199969 8.99999946 52.0199969 0.479999971 52.9199968 0.479999971 52.9199968 10.2599994 51.7199969 10.2599994 47.9999971 1.7399999 47.9999971 1.7399999 47.9999971 10.2599994 47.0999972 10.2599994"></polygon>
                        <path d="M56.5199966,0.479999971 L57.5999966,0.479999971 L60.4799964,10.2599994 L59.5199965,10.2599994 L58.7399965,7.43999956 L55.3199967,7.43999956 L54.5399967,10.2599994 L53.5799968,10.2599994 L56.5199966,0.479999971 Z M58.6199967,6.6599996 L57.1199967,1.13999993 L57.1199967,1.13999993 L55.6199967,6.6599996 L58.6199967,6.6599996 Z" id="Shape"></path>
                        <path d="M67.1999964,6.95999959 C67.079996,9.17999945 66.0599961,10.4399994 64.3199962,10.4399994 C62.3399963,10.4399994 61.1999964,8.87999947 61.1999964,5.39999968 C61.1999964,1.91999989 62.3399963,0.359999979 64.3199962,0.359999979 C66.299996,0.359999979 67.139996,1.79999989 67.139996,3.35999998 L66.2399961,3.35999998 C66.2399961,2.03999988 65.5799961,1.07999994 64.3199962,1.07999994 C62.9399962,1.07999994 62.0999963,2.21999987 62.0999963,5.39999968 C62.0999963,8.57999949 62.9399962,9.71999942 64.3199962,9.71999942 C65.5799961,9.71999942 66.2399961,8.63999949 66.359996,6.95999959 L67.1999964,6.95999959 L67.1999964,6.95999959 Z" id="Path"></path>
                        <polygon id="Path" points="68.4599959 0.479999971 69.3599959 0.479999971 69.3599959 10.2599994 68.4599959 10.2599994"></polygon>
                        <path d="M73.9199956,0.299999982 C75.8999955,0.299999982 77.0399954,1.85999989 77.0399954,5.33999968 C77.0399954,8.81999947 75.8999955,10.3799994 73.9199956,10.3799994 C71.9399957,10.3799994 70.7999958,8.81999947 70.7999958,5.33999968 C70.7999958,1.85999989 71.9399957,0.299999982 73.9199956,0.299999982 Z M73.9199956,9.65999942 C75.2999955,9.65999942 76.1399955,8.51999994 76.1399955,5.33999968 C76.1399955,2.15999987 75.2999955,1.01999994 73.9199956,1.01999994 C72.5399957,1.01999994 71.6999957,2.15999987 71.6999957,5.33999968 C71.6999957,8.51999994 72.5399957,9.65999942 73.9199956,9.65999942 Z" id="Shape"></path>
                        <polygon id="Path" points="78.5399953 0.479999971 79.7399952 0.479999971 83.399995 8.99999946 83.399995 8.99999946 83.399995 0.479999971 84.299995 0.479999971 84.299995 10.2599994 83.099995 10.2599994 79.3799953 1.7399999 79.3799953 1.7399999 79.3799953 10.2599994 78.4799953 10.2599994 78.4799953 0.479999971"></polygon>
                        <path d="M87.9599948,0.479999971 L89.0399947,0.479999971 L91.9199945,10.2599994 L90.9599946,10.2599994 L90.1799946,7.43999956 L86.7599948,7.43999956 L85.9799949,10.2599994 L85.0199949,10.2599994 L87.9599948,0.479999971 Z M90.0599948,6.6599996 L88.5599948,1.13999993 L88.5599948,1.13999993 L87.0599948,6.6599996 L90.0599948,6.6599996 Z" id="Shape"></path>
                        <polygon id="Path" points="92.6999945 0.479999971 93.5999944 0.479999971 93.5999944 9.53999943 97.6799942 9.53999943 97.6799942 10.2599994 92.7599945 10.2599994 92.7599945 0.479999971"></polygon>
                        <path d="M0.719999957,16.559999 L3.05999982,16.559999 C5.87999965,16.559999 6.59999961,18.2399989 6.59999961,21.4199987 C6.59999961,24.5999985 5.87999965,26.2799984 3.05999982,26.2799984 L0.719999957,26.2799984 L0.719999957,16.559999 Z M1.6199999,25.6199985 L3.05999982,25.6199985 C4.9799997,25.6199985 5.75999966,24.6599985 5.75999966,21.4799987 C5.75999966,18.2999989 4.9799997,17.339999 3.05999982,17.339999 L1.6199999,17.339999 L1.6199999,25.6199985 Z" id="Shape"></path>
                        <polygon id="Path" points="8.09999952 16.559999 12.9599992 16.559999 12.9599992 17.279999 8.99999946 17.279999 8.99999946 20.8199988 12.7199992 20.8199988 12.7199992 21.5999987 8.99999946 21.5999987 8.99999946 25.6199985 13.0799992 25.6199985 13.0799992 26.3399984 8.09999952 26.3399984 8.09999952 16.559999"></polygon>
                        <path d="M21.7199987,19.0799989 C21.7199987,17.8799989 21.1799987,17.159999 19.9799988,17.159999 C18.7799989,17.159999 18.1199989,17.939999 18.1199989,18.8999989 C18.1199989,21.8399987 22.8599986,20.2199988 22.8599986,23.6399986 C22.8599986,25.4999985 21.6599987,26.5199984 19.9199988,26.5199984 C18.0599989,26.5199984 17.099999,25.5599985 17.099999,23.6399986 L17.099999,23.3399986 L17.9999989,23.3399986 L17.9999989,23.6999986 C17.9999989,24.9599985 18.6599989,25.7999985 19.9199988,25.7999985 C21.1799987,25.7999985 22.0199987,25.1999985 22.0199987,23.8199986 C22.0199987,20.939999 17.279999,22.5599987 17.279999,19.0199989 C17.279999,17.459999 18.2999989,16.439999 19.9799988,16.439999 C21.7799987,16.439999 22.6199987,17.399999 22.6199987,19.1399989 L21.7199987,19.1399989 L21.7199987,19.0799989 Z" id="Path"></path>
                        <path d="M26.0999984,16.559999 L27.1799984,16.559999 L30.0599982,26.3399984 L29.0999983,26.3399984 L28.3199983,23.5199986 L24.8999985,23.5199986 L24.1199986,26.3399984 L23.1599986,26.3399984 L26.0999984,16.559999 Z M28.1999985,22.7399986 L26.6999985,17.219999 L26.6999985,17.219999 L25.1999985,22.7399986 L28.1999985,22.7399986 Z" id="Shape"></path>
                        <path d="M30.7799982,16.559999 L31.6799981,16.559999 L31.6799981,23.5799986 C31.6799981,25.0199985 32.3399981,25.7399985 33.599998,25.7399985 C34.8599979,25.7399985 35.5199979,25.0199985 35.5199979,23.5799986 L35.5199979,16.559999 L36.4199978,16.559999 L36.4199978,23.5799986 C36.4199978,25.6199985 35.3999979,26.4599984 33.599998,26.4599984 C31.7999981,26.4599984 30.7799982,25.6199985 30.7799982,23.5799986 L30.7799982,16.559999 Z M35.0399979,14.1599992 L33.719998,16.079999 L32.999998,16.079999 L34.019998,14.1599992 L35.0399979,14.1599992 Z" id="Shape"></path>
                        <path d="M37.7999977,16.559999 L40.1399976,16.559999 C42.9599974,16.559999 43.6799974,18.2399989 43.6799974,21.4199987 C43.6799974,24.5999985 42.9599974,26.2799984 40.1399976,26.2799984 L37.7999977,26.2799984 L37.7999977,16.559999 Z M38.6399977,25.6199985 L40.0799976,25.6199985 C41.9999975,25.6199985 42.7799975,24.6599985 42.7799975,21.4799987 C42.7799975,18.2999989 41.9999975,17.339999 40.0799976,17.339999 L38.6399977,17.339999 L38.6399977,25.6199985 Z" id="Shape"></path>
                        <polygon id="Path" points="45.1199973 16.559999 49.979997 16.559999 49.979997 17.279999 46.0199973 17.279999 46.0199973 20.8199988 49.739997 20.8199988 49.739997 21.5999987 46.0199973 21.5999987 46.0199973 25.6199985 50.099997 25.6199985 50.099997 26.3399984 45.1199973 26.3399984"></polygon>
                    </g>
                </g>
            </g>
        </g>
    </g>
</svg>