<?xml version="1.0" encoding="utf-8"?>
<!-- Generator: Adobe Illustrator 21.0.0, SVG Export Plug-In . SVG Version: 6.00 Build 0)  -->
<svg version="1.1" id="Layer_1" xmlns="http://www.w3.org/2000/svg" xmlns:xlink="http://www.w3.org/1999/xlink" x="0px" y="0px"
	 viewBox="0 0 123.7 55" style="enable-background:new 0 0 123.7 55;" xml:space="preserve">
<style type="text/css">
	.st0{fill:none;stroke:#373737;}
	.st1{fill:#006420;}
	.st2{fill:#FF1D21;}
	.st3{fill:#00B725;}
	.st4{fill:#FFAD00;}
	.st5{fill:#FFF600;}
	.st6{fill-rule:evenodd;clip-rule:evenodd;fill:#FFF600;}
	.st7{fill:#FFFFFF;}
	.st8{fill-rule:evenodd;clip-rule:evenodd;fill:#FFFFFF;}
	.st9{fill:#004288;}
	.st10{fill:#373737;}
</style>
<g>
	<g>
		<line class="st0" x1="34.6" y1="37" x2="117.3" y2="37"/>
		<g>
			<path class="st1" d="M14.1,6.3c-6.3,2-9.5,7.4-9.5,15.7v12.5c0,0,1.1-8.1,9.5-10.4V6.3z"/>
			<path class="st2" d="M14.8,8.7c0,0,4.8-1.8,11.6-2.2c0,0,0,5.7-0.2,10.3C25.6,31.5,12.5,24,6.1,31.8c1.3-3.4,5.7-5.8,8.7-6.4V8.7
				z"/>
			<path class="st1" d="M13,29.6c0,0-7,0.6-7.6,4.5C5,37.3,13,37.4,13,37.4V29.6z"/>
			<path class="st3" d="M4.9,17.9c1.4-3.4,3.9-6.8,9.2-9V6.3C8.9,8,5.8,12,4.9,17.9z"/>
			<g>
				<path class="st4" d="M9.1,14.3L9.1,14.3C9.1,14.3,9.1,14.3,9.1,14.3C9.1,14.3,9.1,14.3,9.1,14.3C9.1,14.3,9.1,14.3,9.1,14.3
					L9.1,14.3C9.1,14.3,9.1,14.3,9.1,14.3C9.1,14.3,9.1,14.3,9.1,14.3C9.1,14.3,9.1,14.3,9.1,14.3L9.1,14.3
					C9.1,14.3,9.2,14.3,9.1,14.3L9.1,14.3L9.1,14.3c0.1,0,0.1,0,0.2,0h0c0,0,0.1,0,0.1,0l0,0l0,0c0,0,0,0,0,0c0,0,0,0,0,0
					c0,0,0,0,0.1,0l0,0c0,0,0,0,0,0l0,0c0,0,0,0,0.1,0l0,0c0,0,0,0,0,0h0c0,0,0,0,0.1,0l0,0c0.1,0,0.2,0,0.3,0.1l0,0l0,0
					c0,0,0,0,0,0c0,0,0,0,0,0c0,0,0,0,0,0c0,0,0,0,0,0c0,0,0.1,0,0.1,0c0,0,0,0,0,0c0,0,0,0,0,0c0,0,0,0,0,0c0,0,0,0,0,0
					c0,0,0,0,0,0c0,0,0,0,0,0c0,0,0,0,0,0c0,0,0,0,0,0c0,0,0,0,0,0c0,0,0,0,0,0c0,0,0,0,0,0c0,0,0,0,0,0c0,0,0,0,0,0c0,0,0,0,0,0
					c0,0,0,0,0,0c0,0,0,0,0,0c0,0,0,0,0,0v-0.2v-0.2c-0.1,0-0.1,0-0.2,0c0,0-0.1,0-0.1,0l0,0c0,0,0,0,0,0c0,0,0,0,0,0c0,0,0,0,0,0
					c0,0,0,0,0,0c0,0,0,0,0,0c0,0,0,0,0,0c0,0,0,0,0,0c-0.1,0-0.2-0.1-0.3-0.1c0,0,0,0,0,0c0,0,0,0,0,0c0,0,0,0,0,0c0,0,0,0,0,0
					c0,0,0,0,0,0c0,0,0,0,0,0l0,0c0,0,0,0,0,0c0,0,0,0,0,0c0,0,0,0,0,0c0,0,0,0,0,0c0,0,0,0,0,0c0,0,0,0,0,0c0,0,0,0,0,0l0,0
					c0,0,0.1,0,0.1,0v0c0,0,0,0,0,0h0c0.2-0.1,0.4-0.1,0.6-0.1v-0.2c0,0,0,0,0,0c0,0,0,0,0,0v-0.2c-0.1,0.1-0.2,0.2-0.3,0.3
					C9.9,13.9,9.7,14,9.5,14c1-1.4,2.6-2.3,4.4-2.4l0-0.2c-1.9,0.1-3.7,1.1-4.7,2.6c-0.1,0-0.2,0-0.2,0.1c0,0,0,0,0,0L9,14.3
					c0,0,0,0,0,0.1C9,14.4,9,14.3,9.1,14.3z M9.5,14.1C9.5,14.1,9.5,14.1,9.5,14.1C9.5,14.1,9.5,14.1,9.5,14.1L9.5,14.1z M13.9,12.2
					c-1.1,0.1-2,0.5-2.8,1.1h-0.3c0.9-0.7,1.9-1.2,3.1-1.3L13.9,12.2z M8.5,15.4c0,0,0-0.1,0-0.1l0.1-0.1c0,0,0,0,0,0
					c0,0,0.1,0,0.1,0c0,0,0,0,0,0s0,0,0,0l0,0c0,0,0,0,0,0c0,0,0.1,0,0.1,0l0,0c0.1,0,0.2,0,0.4,0.1c0,0,0.1,0,0.2,0l0,0
					c0,0,0,0,0.1,0l0,0c0,0,0,0,0,0l0,0c0,0,0,0,0,0l0,0c0,0,0,0,0,0c0,0,0,0,0,0c0,0,0,0,0,0h0c0,0,0,0,0,0h0c0,0,0,0,0,0l0,0
					c0,0,0,0,0,0h0c0,0,0,0,0,0h0c0,0,0,0,0,0c0,0,0,0,0,0c0,0,0,0,0,0c0,0,0,0,0,0c0,0,0,0,0,0c0,0,0,0,0,0c0,0,0,0,0,0
					c0,0,0,0,0,0c0,0,0,0,0,0c0,0,0,0,0,0c0,0,0,0,0,0c0,0,0,0,0,0c0,0,0,0,0,0c0,0,0,0,0,0c0,0,0,0,0,0c0,0,0,0,0,0c0,0,0,0,0,0
					c0,0,0,0,0,0c0,0,0,0,0,0c0,0,0,0,0,0c0,0,0,0,0,0c0,0,0,0,0,0c0,0,0,0,0,0c0,0,0,0,0,0c0,0,0,0,0,0c0,0,0,0,0,0c0,0,0,0,0,0
					c0,0,0,0,0,0c0,0,0,0,0,0c0,0,0,0,0,0c0,0,0,0,0,0c0,0,0,0,0,0c0,0,0,0,0,0c0,0,0,0,0,0c0,0,0,0,0,0c0,0,0,0,0,0c0,0,0,0,0,0
					c0,0,0,0,0,0c0,0,0,0,0,0c0,0,0,0,0,0c0,0,0,0,0,0c0,0,0,0,0,0c0,0,0,0,0,0v0.2c-0.4-0.2-0.8-0.3-1.1-0.4l0,0l0,0
					c-0.1,0-0.1,0-0.2,0h0c-0.1,0-0.3-0.1-0.4-0.1c0,0,0,0,0,0c0,0,0,0,0,0c0,0,0,0,0,0c0,0,0,0,0,0c0,0,0,0,0,0c0,0,0,0,0,0
					c0,0,0,0,0,0c0,0,0,0,0,0c0,0,0,0,0,0c0,0,0,0,0,0c0,0,0,0,0,0c0,0,0,0,0,0c0,0,0,0,0,0c0,0,0,0,0,0c0,0,0,0-0.1,0l0,0
					C8.6,15.2,8.5,15.3,8.5,15.4z M10.4,21.7c0.9,0.9,2.1,1.5,3.5,1.6l0,0.2c-1.7-0.1-3.2-1-4.2-2.4c0.1,0,0.2,0,0.2,0
					C10.1,21.4,10.2,21.5,10.4,21.7C10.4,21.7,10.4,21.7,10.4,21.7L10.4,21.7z M14.6,11.5L14.6,11.5L14.6,11.5c0-0.1,0-0.1,0-0.1
					c0,0,0,0,0,0h0.1c0,0,0,0,0,0v0.1c2,0.1,3.7,1.1,4.8,2.7c0.1,0,0.1,0.1,0.2,0.1c0,0,0,0,0,0c0,0,0.1,0.2,0.1,0.2
					c0,0,0,0.1,0,0.1c0,0,0,0,0-0.1c0,0,0,0-0.1,0l0,0l0,0c0,0,0,0,0,0l0,0c0,0,0,0,0,0l0,0c-0.1,0-0.2-0.1-0.3-0.1l0,0l0,0
					c0,0,0,0,0,0c0,0,0,0,0,0c0,0,0,0,0,0c0,0,0,0,0,0c0,0,0,0,0,0l0,0c0,0,0,0,0,0c0,0,0,0,0,0c0,0,0,0,0,0l0,0c0,0,0,0,0,0
					c0,0,0,0,0,0c0,0,0,0,0,0c0,0,0,0,0,0c0,0,0,0-0.1,0c0,0,0,0,0,0c0,0,0,0,0,0h0c0,0,0,0,0,0h0c0,0,0,0,0,0c0,0,0,0,0,0
					c0,0,0,0,0,0l0,0c0,0,0,0,0,0c0,0,0,0,0,0c0,0,0,0,0,0c0,0,0,0,0,0c-0.1,0-0.2-0.1-0.3-0.1l0,0l0,0c0,0,0,0-0.1,0l0,0
					c0,0,0,0-0.1,0l0,0c0,0,0,0-0.1,0c0,0,0,0,0,0c0,0,0,0-0.1,0h0v-0.2l0,0v-0.2c0.1,0.1,0.2,0.2,0.3,0.3c0.2,0.1,0.5,0.1,0.6,0.2
					c-1.1-1.4-2.7-2.3-4.5-2.4V12c1.2,0.1,2.4,0.5,3.3,1.3h-0.3c-0.9-0.6-1.9-1-3-1.1v1.1h-0.2v-1.1V12v-0.4V11.5z M19.9,14.7
					c0.1,0,0.1,0.1,0.1,0.1c0,0,0.1,0.1,0.1,0.2c0,0,0,0.1,0,0.1c0,0,0,0,0-0.1c0,0,0,0-0.1,0l0,0c0,0,0,0,0,0
					c-0.2-0.1-0.4-0.2-0.7-0.3v0c-0.1,0-0.2,0-0.2-0.1v0c-0.2-0.1-0.5-0.1-0.7-0.2v-0.2c0,0,0.1,0,0.1,0c0,0,0,0,0,0c0,0,0,0,0,0
					c0,0,0,0,0,0c0,0,0,0,0,0c0,0,0,0,0,0c0,0,0,0,0,0c0,0,0,0,0,0c0,0,0,0,0,0c0,0,0,0,0,0c0,0,0,0,0,0c0,0,0,0,0,0c0,0,0,0,0,0
					c0,0,0,0,0,0c0,0,0,0,0,0c0,0,0,0,0,0c0,0,0,0,0,0c0,0,0,0,0,0c0,0,0,0,0,0c0,0,0,0,0,0c0,0,0,0,0,0c0,0,0,0,0,0c0,0,0,0,0,0
					c0,0,0,0,0,0c0,0,0,0,0,0c0,0,0,0,0,0c0,0,0,0,0,0c0,0,0,0,0,0c0.1,0,0.2,0,0.2,0.1c0,0,0,0,0,0l0,0c0,0,0.1,0,0.1,0l0,0
					c0,0,0.1,0,0.1,0l0,0c0.1,0,0.2,0.1,0.3,0.1l0,0C19.8,14.7,19.9,14.7,19.9,14.7C19.9,14.7,19.9,14.7,19.9,14.7L19.9,14.7z
					 M14.1,11.5C14,11.5,14,11.5,14.1,11.5C14,11.5,14,11.5,14.1,11.5z M8,17.6v-0.2c0,0,0,0,0,0c0,0,0-0.1,0.1-0.1
					c0-0.7,0.2-1.3,0.4-1.9c0,0,0,0,0,0c0,0,0,0,0,0c0,0,0,0,0,0v0c0,0,0,0,0-0.1c0,0,0,0,0,0c0,0,0.1,0,0.2,0.1
					c-0.3,0.6-0.4,1.2-0.5,1.9c0.1-0.1,0.2-0.1,0.4-0.2c0.1-0.5,0.2-1,0.4-1.5c0,0,0.1,0.1,0.1,0.1c0,0.1-0.1,0.2-0.1,0.3
					c0,0,0,0,0,0C9,16.3,8.9,16.6,8.9,17c0.4-0.1,0.9-0.3,1.4-0.4c0.1,0,0.1,0,0.2,0v0.2c-0.1,0-0.1,0-0.2,0c0,0,0,0,0,0h0
					c0,0,0,0,0,0c0,0,0,0,0,0c0,0,0,0,0,0h0c0,0,0,0,0,0h0c0,0,0,0,0,0c0,0,0,0,0,0c0,0,0,0,0,0c0,0,0,0,0,0c0,0,0,0,0,0
					c0,0,0,0,0,0c0,0,0,0,0,0h0c0,0,0,0,0,0h0c0,0,0,0,0,0c0,0,0,0,0,0c0,0,0,0,0,0l0,0c0,0,0,0,0,0c0,0,0,0,0,0c0,0,0,0,0,0
					c0,0,0,0,0,0c0,0,0,0,0,0l0,0c0,0,0,0,0,0h0c0,0,0,0,0,0c0,0,0,0,0,0c0,0,0,0,0,0c0,0,0,0,0,0c0,0-0.1,0-0.1,0l0,0c0,0,0,0,0,0
					h0c0,0,0,0,0,0c0,0,0,0,0,0c0,0,0,0,0,0l0,0c0,0,0,0,0,0h0c0,0,0,0,0,0c0,0,0,0,0,0c0,0-0.1,0-0.1,0h0c0,0,0,0,0,0h0
					c0,0,0,0,0,0c0,0,0,0,0,0c0,0-0.1,0-0.1,0l0,0c0,0,0,0,0,0c0,0,0,0,0,0c0,0,0,0,0,0l0,0l0,0c-0.1,0-0.1,0-0.2,0.1l0,0l0,0
					c0,0,0,0,0,0c0,0,0,0,0,0c0,0,0,0,0,0c0,0,0,0,0,0c0,0,0,0,0,0h0c0,0,0,0,0,0c0,0,0,0,0,0c0,0,0,0,0,0l0,0c0,0,0,0,0,0l0,0
					c0,0,0,0,0,0l0,0c0,0,0,0,0,0h0c0,0,0,0,0,0h0c0,0,0,0,0,0h0c0,0,0,0,0,0l0,0c0,0,0,0,0,0c0,0,0,0,0,0c0,0,0,0,0,0l0,0l0,0
					C8.2,17.5,8.2,17.5,8,17.6C8.1,17.5,8.1,17.5,8,17.6L8,17.6C8.1,17.6,8,17.6,8,17.6C8,17.7,8,17.6,8,17.6z M14.1,12v-0.4v-0.2
					v-0.1c0,0,0,0,0,0h0.1c0,0,0,0,0,0v0.1v0v0.2V12v0.2v1.1l-0.2,0V12z M19.5,21.5C19.5,21.5,19.5,21.6,19.5,21.5
					c0,0.1-0.1,0.2-0.1,0.2c0,0-0.1,0.1-0.1,0.1c0,0,0.1,0,0.1-0.2l0,0l0,0c0,0,0,0,0,0c0,0,0-0.1-0.1-0.1h0
					c-0.1-0.1-0.1-0.2-0.2-0.3l0,0c0,0-0.1-0.1-0.1-0.1l0,0c-0.2-0.2-0.6-0.5-1-0.8c0-0.1,0.1-0.1,0.1-0.2l0,0l0,0
					c0.5,0.4,0.9,0.7,1.2,1l0,0c0,0,0,0,0.1,0.1c0,0,0,0,0,0c0,0,0,0,0,0c0,0,0,0,0,0c0,0,0,0,0,0c0,0,0,0,0,0c0,0,0,0,0,0
					c0,0,0,0,0,0c0,0,0,0,0,0c0,0,0,0,0,0c0,0,0,0,0,0c0,0,0,0,0,0c0,0,0,0,0,0v0c0,0,0,0,0,0l0,0c0,0,0,0,0,0c0,0,0,0,0,0
					c0,0,0,0,0,0c0,0,0,0,0,0C19.5,21.4,19.5,21.4,19.5,21.5C19.5,21.5,19.5,21.5,19.5,21.5L19.5,21.5L19.5,21.5
					C19.5,21.5,19.5,21.5,19.5,21.5C19.5,21.5,19.5,21.5,19.5,21.5z M19.3,21.7C19.3,21.7,19.3,21.7,19.3,21.7L19.3,21.7
					c-0.1,0.1-0.1,0.1-0.1,0.1c-1.1,1.3-2.7,2.2-4.5,2.3v0.1c0,0,0,0,0,0c0,0,0,0,0,0h-0.1c0,0,0,0,0,0v0v-0.1v-0.2v-0.4v-0.2v-0.9
					c0.1,0,0.1,0,0.2,0v0.9c1.4-0.1,2.7-0.7,3.6-1.6l0,0c0,0,0,0,0,0c0,0,0,0,0,0c0,0,0,0,0,0c0.1-0.1,0.2-0.2,0.3-0.4
					c0.1,0,0.1,0,0.2,0.1c-1,1.2-2.5,2-4.1,2.1v0.4c1.8-0.1,3.4-1,4.5-2.3C19.3,21.6,19.3,21.6,19.3,21.7z M20.7,18.2
					C20.7,18.2,20.7,18.2,20.7,18.2L20.7,18.2c-0.1,0.9-0.3,1.7-0.6,2.4c0,0.1,0.1,0.2,0,0.2c0,0-0.1,0.1-0.1,0.1c0,0,0,0.1-0.1,0.1
					c0,0,0.1-0.1,0.1-0.2l0,0c0,0,0,0,0,0h0l0,0c0,0,0-0.1,0-0.1c0-0.1-0.1-0.1-0.2-0.2h0c0,0,0,0,0,0c0,0,0,0,0,0c0,0,0,0,0,0v0
					c-0.1-0.1-0.2-0.2-0.3-0.3c0,0,0,0,0,0c0,0,0,0,0,0c0,0,0,0,0,0c0,0-0.1-0.1-0.1-0.1c0,0,0,0,0,0c0,0,0,0,0,0c0,0,0,0,0,0
					c0,0-0.1-0.1-0.1-0.1c0,0,0,0,0,0c0,0,0,0,0,0c0,0,0,0,0,0c0,0-0.1-0.1-0.1-0.1c0,0,0,0,0,0c0,0,0,0,0,0c0,0,0,0,0,0
					c0,0,0,0,0,0v0c0,0,0,0-0.1-0.1c0,0,0,0,0,0c0,0,0,0,0,0c0,0,0,0,0,0c0,0,0,0,0,0c0,0,0,0,0,0c0,0,0,0,0,0l0,0c0,0,0,0,0,0
					c0,0,0,0,0,0c0,0,0,0,0,0c0,0,0,0,0,0c0,0,0,0,0,0c0,0,0,0,0,0c0,0,0,0,0,0c0,0,0,0,0,0c0,0,0,0,0,0c0,0,0,0,0,0c0,0,0,0,0,0
					c0,0,0,0,0,0c0,0,0,0,0,0c0,0,0,0,0,0c0,0,0,0,0,0c0,0,0,0,0,0c0,0,0,0,0,0c0,0,0,0,0,0c0,0,0,0,0,0c0,0,0,0,0,0c0,0,0,0,0,0
					c0,0,0,0,0,0c0,0,0,0,0,0c0-0.1,0-0.1,0-0.2c0.5,0.4,0.9,0.7,1.3,1c0.2-0.5,0.3-0.9,0.4-1.4l0,0c0,0,0,0,0,0v0c0,0,0,0,0-0.1v0
					c0,0,0,0,0-0.1c0,0,0,0,0,0c0,0,0,0,0,0c0,0,0,0,0,0c0,0,0,0,0,0c0,0,0,0,0,0c0,0,0,0,0,0c0,0,0,0,0,0c0,0,0,0,0-0.1
					c0,0,0.1,0,0.2,0c0,0.7-0.2,1.4-0.5,2c0.1,0.1,0.2,0.2,0.3,0.3c0.3-0.7,0.5-1.5,0.6-2.3C20.6,18.1,20.6,18.1,20.7,18.2z
					 M20.8,17.5L20.8,17.5v0.2c0,0,0,0,0,0c0,0,0-0.1,0-0.1l0,0l0,0C20.7,17.6,20.7,17.6,20.8,17.5C20.7,17.6,20.7,17.5,20.8,17.5
					c-0.1,0-0.2,0-0.3,0l0,0h0c0,0,0,0,0,0c0,0,0,0,0,0c0,0,0,0,0,0c0,0,0,0,0,0c0,0,0,0,0,0l0,0c0,0,0,0,0,0l0,0c0,0,0,0,0,0h0
					c0,0,0,0,0,0l0,0c0,0,0,0,0,0c0,0,0,0,0,0c0,0,0,0,0,0c0,0,0,0,0,0c0,0,0,0,0,0l0,0c0,0,0,0,0,0h0c0,0,0,0,0,0c0,0,0,0,0,0
					c0,0,0,0,0,0h0c0,0,0,0,0,0h0c0,0,0,0,0,0l0,0c0,0,0,0,0,0c0,0,0,0,0,0c-0.1,0-0.1-0.1-0.2-0.1l0,0l0,0c0,0,0,0,0,0c0,0,0,0,0,0
					c0,0,0,0,0,0c0,0,0,0,0,0c0,0,0,0,0,0h0c0,0,0,0,0,0h0c0,0,0,0,0,0l0,0c0,0,0,0,0,0c0,0,0,0,0,0c0,0-0.1,0-0.1,0c0,0,0,0,0,0
					c0,0,0,0,0,0c0,0,0,0,0,0c0,0,0,0,0,0h0c0,0,0,0,0,0h0c0,0,0,0,0,0c0,0,0,0,0,0c0,0,0,0,0,0c0,0,0,0,0,0c0,0-0.1,0-0.1,0
					c0,0,0,0,0,0c0,0,0,0,0,0c0,0,0,0,0,0c0,0,0,0,0,0h0c0,0,0,0,0,0l0,0c0,0,0,0,0,0l0,0c0,0,0,0,0,0c0,0,0,0,0,0c0,0,0,0,0,0l0,0
					c0,0,0,0,0,0c0,0,0,0,0,0c0,0,0,0,0,0c0,0,0,0,0,0c0,0,0,0,0,0c0,0,0,0,0,0c0,0,0,0,0,0h0c0,0,0,0,0,0c0,0,0,0,0,0c0,0,0,0,0,0
					c0,0,0,0,0,0c0,0,0,0,0,0h0c0,0,0,0,0,0h0c0,0,0,0,0,0c0,0,0,0,0,0c0,0,0,0,0,0h0c0,0,0,0,0,0c-0.1,0-0.1,0-0.2,0v-0.2
					c0.1,0,0.1,0,0.2,0c0.5,0.1,1,0.2,1.4,0.4c-0.1-0.6-0.3-1.2-0.5-1.7l0,0c-0.1-0.1-0.1-0.2-0.2-0.3c0,0,0,0,0,0c0,0,0,0,0,0
					c0,0,0.1,0,0.2,0c0.4,0.6,0.6,1.4,0.7,2.1c0.1,0.1,0.3,0.1,0.4,0.2c-0.1-0.8-0.3-1.6-0.7-2.3c0.1,0,0.1,0,0.2,0v0c0,0,0,0,0,0.1
					l0,0c0.3,0.7,0.5,1.5,0.6,2.3C20.7,17.4,20.8,17.4,20.8,17.5z M20.8,18L20.8,18v0.2c0,0,0,0,0,0.1c0,0,0-0.1,0-0.1
					C20.7,18.1,20.7,18.1,20.8,18L20.8,18c-0.1,0.1-0.1,0.1-0.1,0.1c0,0,0,0,0,0l0,0c0,0,0,0,0,0c0,0-0.1-0.1-0.1-0.1l0,0
					c-0.1-0.1-0.2-0.1-0.3-0.2l0,0c0,0,0,0,0,0c0,0-0.1,0-0.1,0c0,0,0,0,0,0c-0.4-0.2-1-0.3-1.5-0.4c-0.1,0-0.1,0-0.2,0v-0.2
					c0.1,0,0.1,0,0.2,0c0,0,0,0,0.1,0c0,0,0,0,0,0c0,0,0,0,0,0c0,0,0,0,0,0c0,0,0,0,0,0c0,0,0,0,0,0c0,0,0,0,0,0c0,0,0,0,0,0
					c0,0,0,0,0,0c0,0,0,0,0,0c0,0,0,0,0,0c0,0,0,0,0,0c0,0,0,0,0,0c0,0,0,0,0,0c0,0,0,0,0,0c0,0,0,0,0,0c0,0,0,0,0,0c0,0,0,0,0,0
					c0,0,0,0,0,0c0,0,0,0,0,0c0,0,0,0,0,0c0,0,0,0,0,0c0,0,0,0,0,0c0,0,0,0,0,0c0,0,0,0,0,0c0,0,0,0,0,0c0,0,0,0,0,0c0,0,0,0,0,0
					c0,0,0,0,0,0c0,0,0,0,0,0c0,0,0,0,0,0c0,0,0,0,0,0c0,0,0,0,0,0c0,0,0,0,0,0c0,0,0,0,0,0c0,0,0,0,0,0c0,0,0,0,0,0c0,0,0,0,0,0
					c0,0,0,0,0,0c0,0,0,0,0,0c0,0,0,0,0,0c0,0,0,0,0,0c0,0,0,0,0,0c0,0,0,0,0,0c0,0,0,0,0,0c0,0,0,0,0,0c0,0,0,0,0,0c0,0,0,0,0,0
					c0,0,0,0,0,0c0,0,0,0,0,0c0,0,0,0,0,0c0,0,0,0,0,0c0,0,0.1,0,0.1,0c0,0,0,0,0,0c0,0,0,0,0,0c0,0,0,0,0,0c0,0,0,0,0,0
					c0,0,0,0,0,0c0,0,0,0,0,0c0,0,0,0,0,0c0,0,0,0,0,0c0.1,0,0.1,0,0.2,0.1c0,0,0,0,0,0c0,0,0,0,0,0c0,0,0,0,0,0c0,0,0,0,0,0
					c0,0,0,0,0,0c0,0,0,0,0,0c0,0,0,0,0,0c0,0,0,0,0,0c0,0,0,0,0,0c0,0,0,0,0,0c0,0,0,0,0,0c0,0,0,0,0,0c0,0,0,0,0,0c0,0,0,0,0,0
					c0,0,0,0,0,0c0,0,0,0,0,0c0,0,0,0,0,0c0,0,0,0,0,0c0,0,0,0,0,0c0,0,0,0,0,0c0,0,0,0,0,0c0,0,0,0,0,0c0,0,0,0,0,0c0,0,0,0,0,0
					c0,0,0,0,0,0c0,0,0,0,0,0c0,0,0,0,0,0c0.1,0,0.1,0.1,0.2,0.1l0,0c0,0,0,0,0,0C20.8,17.9,20.8,18,20.8,18z M8.1,18.1L8.1,18.1
					C8.1,18.1,8.1,18.1,8.1,18.1c0,0.1-0.1,0.1,0,0.1C8.1,18.2,8,18.2,8.1,18.1L8.1,18.1C8,18,8,18,8.1,18.1c-0.1-0.1-0.1-0.2,0-0.2
					c0,0,0,0,0,0l0,0c0,0,0.1-0.1,0.2-0.1c0,0,0,0,0,0c0,0,0,0,0,0c0,0,0,0,0,0c0,0,0,0,0,0c0,0,0,0,0,0c0,0,0,0,0,0c0,0,0,0,0,0
					c0,0,0,0,0,0c0,0,0,0,0,0c0,0,0,0,0,0c0,0,0,0,0,0c0,0,0,0,0,0c0,0,0,0,0,0c0,0,0,0,0,0c0,0,0,0,0,0c0,0,0,0,0,0c0,0,0,0,0,0
					c0,0,0,0,0,0c0,0,0,0,0,0c0,0,0,0,0,0c0,0,0,0,0,0c0,0,0,0,0.1,0l0,0c0.1,0,0.1,0,0.2-0.1c0,0,0,0,0,0c0,0,0,0,0,0c0,0,0,0,0,0
					c0,0,0,0,0,0c0,0,0,0,0,0l0,0c0,0,0,0,0,0c0,0,0,0,0,0c0,0,0,0,0,0c0,0,0,0,0,0c0,0,0,0,0,0c0,0,0,0,0,0c0,0,0,0,0,0
					c0,0,0,0,0,0c0,0,0,0,0,0c0,0,0,0,0,0c0,0,0,0,0,0c0,0,0,0,0,0c0,0,0,0,0,0c0,0,0,0,0,0c0,0,0,0,0,0c0,0,0,0,0,0c0,0,0,0,0,0
					c0,0,0,0,0,0c0,0,0,0,0,0c0,0,0,0,0,0c0,0,0,0,0,0c0,0,0,0,0,0c0,0,0,0,0,0c0,0,0,0,0,0c0,0,0,0,0,0c0,0,0,0,0,0c0,0,0,0,0,0
					c0,0,0,0,0,0c0,0,0,0,0,0c0,0,0,0,0,0c0,0,0,0,0,0c0,0,0,0,0,0c0,0,0,0,0,0c0,0,0,0,0,0c0,0,0,0,0,0c0,0,0,0,0,0c0,0,0,0,0,0
					c0,0,0,0,0,0c0,0,0,0,0,0c0,0,0,0,0,0c0,0,0,0,0,0c0,0,0,0,0,0c0,0,0,0,0,0c0,0,0,0,0,0c0,0,0,0,0,0c0,0,0,0,0,0c0,0,0,0,0,0
					c0,0,0,0,0,0c0,0,0,0,0,0c0,0,0,0,0,0c0,0,0,0,0,0c0,0,0,0,0,0c0,0,0,0,0,0c0,0,0,0,0,0c0,0,0,0,0,0c0,0,0,0,0,0c0,0,0,0,0.1,0
					c0.1,0,0.1,0,0.2,0l0,0l0,0v0.2c-0.1,0-0.1,0-0.2,0c-0.5,0.1-1.1,0.2-1.5,0.4l0,0c-0.1,0-0.1,0-0.2,0.1l0,0
					c-0.1,0.1-0.3,0.1-0.4,0.2l0,0C8.2,18,8.2,18,8.1,18.1L8.1,18.1C8.1,18.1,8.1,18.1,8.1,18.1z M9.1,21.2
					C9.1,21.3,9.1,21.3,9.1,21.2C9.1,21.3,9.1,21.3,9.1,21.2c-0.1,0-0.1-0.1-0.1-0.1v0c0,0,0,0,0-0.1c0,0,0,0,0,0l0,0
					c0,0,0.1-0.1,0.1-0.1c0,0,0,0,0,0c0,0,0,0,0,0c0,0,0,0,0,0c0,0,0,0,0,0c0,0,0,0,0,0h0c0,0,0,0,0,0l0,0c0,0,0,0,0,0l0,0
					c0,0,0,0,0,0c0,0,0,0,0,0c0,0,0,0,0,0c0,0,0,0,0,0c0,0,0.1,0,0.1,0l0,0c0,0,0,0,0.1,0l0,0c0,0,0.1,0,0.2-0.1c0,0,0,0,0.1,0l0,0
					c0,0,0,0,0,0l0,0c0,0,0,0,0.1,0h0c0,0,0,0,0,0c0,0,0,0,0,0c0,0,0,0,0.1,0c0,0,0,0,0,0c0,0,0,0,0,0c0,0,0,0,0,0c0,0,0,0,0.1,0
					c0,0,0,0,0,0c0,0,0,0,0,0c0,0,0,0,0,0c0,0,0,0,0.1,0c0,0,0,0,0,0c0,0,0,0,0,0c0,0,0,0,0,0c0,0,0,0,0,0c0.3-0.1,0.5-0.1,0.7-0.2
					c0,0.1,0.1,0.1,0.1,0.2c-0.3,0.1-0.5,0.1-0.8,0.2C9.8,20.8,9.3,21.1,9.1,21.2z M8.9,20.8C8.8,20.8,8.8,20.8,8.9,20.8
					c-0.1,0-0.1-0.2-0.1-0.2c0,0,0,0,0,0c0,0,0-0.1,0-0.1c-0.4-0.7-0.6-1.6-0.7-2.4c0.1,0,0.1,0,0.2-0.1c0,0.8,0.3,1.6,0.6,2.4
					c0.1-0.1,0.2-0.1,0.3-0.2c-0.3-0.7-0.5-1.5-0.6-2.3c0.1,0,0.1,0,0.2,0c0,0.8,0.2,1.5,0.6,2.2c0.2-0.1,0.4-0.2,0.7-0.2
					c0.2-0.1,0.4-0.1,0.7-0.2c0,0.1,0,0.1,0.1,0.2c-0.2,0.1-0.5,0.1-0.7,0.2c0,0,0,0,0,0c0,0,0,0,0,0c0,0,0,0,0,0c0,0,0,0,0,0
					c0,0,0,0,0,0c0,0,0,0,0,0c0,0,0,0,0,0c0,0,0,0,0,0c0,0-0.1,0-0.1,0c0,0,0,0,0,0c0,0,0,0,0,0c0,0,0,0,0,0c0,0,0,0,0,0h0
					c0,0,0,0,0,0l0,0c0,0-0.1,0-0.1,0h0c-0.1,0-0.1,0-0.2,0.1l0,0l0,0c-0.1,0-0.1,0-0.2,0.1l0,0l0,0c0,0,0,0,0,0h0c0,0,0,0,0,0l0,0
					c0,0,0,0,0,0l0,0c0,0-0.1,0-0.1,0.1l0,0c0,0,0,0,0,0c0,0,0,0,0,0c0,0,0,0,0,0h0c0,0,0,0,0,0l0,0c0,0-0.1,0-0.1,0.1l0,0l0,0
					C8.9,20.7,8.9,20.7,8.9,20.8C8.9,20.8,8.9,20.8,8.9,20.8L8.9,20.8L8.9,20.8L8.9,20.8C8.8,20.8,8.8,20.8,8.9,20.8
					C8.8,20.8,8.8,20.8,8.9,20.8z M14,24L14,24c-2-0.1-3.7-1.2-4.8-2.7c0,0,0,0,0,0v0c0.1,0,0.1,0,0.2-0.1c1,1.5,2.7,2.5,4.6,2.7
					L14,24z M14.2,24.1L14.2,24.1L14.2,24.1c0,0.1,0,0.1,0,0.1h-0.1c0,0,0,0,0,0v-0.1v-0.2v-0.4v-1.1c0.1,0,0.1,0,0.2,0v0.9v0.2v0.4
					V24.1z"/>
				<path class="st5" d="M9.5,14c1-1.4,2.6-2.3,4.4-2.4L13.9,12c-1.2,0.1-2.3,0.6-3.1,1.3h-0.3v0.3c-0.1,0.1-0.2,0.2-0.3,0.3
					C9.9,13.9,9.7,14,9.5,14z M19.9,15c-0.2,0-0.3,0-0.4,0c0.4,0.6,0.6,1.4,0.7,2.1c0.1,0.1,0.3,0.1,0.4,0.2
					C20.4,16.4,20.2,15.7,19.9,15z M14.8,12c1.2,0.1,2.4,0.5,3.3,1.3h0.3v0.3c0.1,0.1,0.2,0.2,0.3,0.3c0.2,0.1,0.5,0.1,0.6,0.2
					c-1.1-1.4-2.7-2.3-4.5-2.4V12z M9.7,21.2c-0.1,0-0.2,0-0.4,0.1c1,1.5,2.7,2.5,4.6,2.7l-0.1-0.4C12.2,23.4,10.7,22.5,9.7,21.2z
					 M14.8,23.5v0.4c1.8-0.1,3.4-1,4.5-2.3c-0.1-0.1-0.2-0.1-0.3-0.2C17.9,22.6,16.4,23.4,14.8,23.5z M9.2,20.3
					c-0.3-0.7-0.5-1.5-0.6-2.3c-0.1,0-0.2,0-0.4,0.1c0,0.8,0.3,1.6,0.6,2.4C9,20.4,9.1,20.4,9.2,20.3z M19.7,20.1
					c0.1,0.1,0.2,0.2,0.3,0.3c0.3-0.7,0.5-1.5,0.6-2.3c-0.1,0-0.3-0.1-0.3-0.1C20.2,18.8,20,19.5,19.7,20.1z M8.7,17
					c0.1-0.5,0.2-1,0.4-1.5c-0.1-0.1-0.2-0.2-0.3-0.2c-0.3,0.6-0.4,1.2-0.5,1.9C8.4,17.2,8.5,17.1,8.7,17z"/>
				<g>
					<path class="st5" d="M19.8,14.4c-0.3-0.2-0.9-0.4-1.4-0.5v0.3c0.7,0.1,1.3,0.3,1.6,0.5L19.8,14.4z"/>
					<path class="st5" d="M10.2,14.3c0.1,0,0.2,0,0.3-0.1v-0.3c-0.3,0.1-0.6,0.1-0.8,0.2C9.8,14.2,10,14.3,10.2,14.3z"/>
					<g>
						<g>
							<path class="st6" d="M10.5,16.7c-0.1,0-0.1,0-0.2,0c-0.9,0.2-1.9,0.5-2.2,0.8c0,0,0,0,0,0v0.3c0.3-0.2,1.1-0.6,2.2-0.8
								c0.1,0,0.1,0,0.2,0V16.7z"/>
							<path class="st6" d="M20.7,17.5c-0.3-0.3-1.3-0.6-2.2-0.8c-0.1,0-0.1,0-0.2,0v0.4c0.1,0,0.1,0,0.2,0c1.1,0.2,1.9,0.5,2.2,0.8
								L20.7,17.5C20.7,17.6,20.7,17.6,20.7,17.5z"/>
						</g>
						<path class="st6" d="M10.8,20c-0.2,0.1-0.5,0.1-0.7,0.2c-0.5,0.2-1.1,0.4-1.2,0.6c0,0,0,0,0,0l0.2,0.3
							c0.1-0.1,0.5-0.4,1.1-0.5c0.3-0.1,0.5-0.1,0.7-0.2C10.9,20.2,10.8,20.1,10.8,20z"/>
						<g>
							<rect x="14.2" y="11.4" class="st6" width="0.4" height="1.8"/>
							<path class="st6" d="M14.4,22.5c-0.1,0-0.1,0-0.2,0v1.7h0.4v-1.7C14.5,22.5,14.5,22.5,14.4,22.5z"/>
						</g>
						<g>
							<path class="st6" d="M19.9,20.6c-0.2-0.4-0.9-0.9-1.6-1.5c-0.1,0.3-0.1,0.6-0.3,0.9c0.8,0.6,1.4,1.1,1.5,1.4l0.5-0.7
								C20,20.7,20,20.7,19.9,20.6z"/>
							<path class="st6" d="M10.5,14.6c-0.5-0.2-1-0.3-1.2-0.3h0c-0.1,0-0.1,0-0.2,0l-0.4,0.8c0,0,0,0,0,0c0.3,0,0.9,0.2,1.7,0.6
								L10.5,14.6z"/>
						</g>
					</g>
				</g>
				<path d="M18.4,14.8v0.7c0.4-0.1,0.8-0.2,1.1-0.3c-0.1-0.1-0.1-0.2-0.2-0.4c0.1,0,0.4,0,0.8,0.1v0c0,0,0,0,0,0.1c0,0,0,0,0,0
					s0,0,0,0c0,0,0,0,0-0.1c0,0,0,0-0.1,0l0,0c-0.2-0.1-0.6-0.2-1-0.3c0,0,0,0,0,0C18.9,14.7,18.6,14.8,18.4,14.8z M20.8,17.7
					C20.8,17.6,20.8,17.6,20.8,17.7L20.8,17.7C20.7,17.7,20.8,17.7,20.8,17.7C20.8,17.7,20.8,17.7,20.8,17.7z M19.9,14.6
					C19.9,14.5,19.9,14.5,19.9,14.6c-0.1-0.1-0.1-0.1-0.1-0.1L19.9,14.6C19.9,14.6,19.9,14.6,19.9,14.6z M19.9,20.9
					C19.9,20.9,19.9,20.9,19.9,20.9C19.9,20.9,19.9,20.9,19.9,20.9c0.1,0,0.1-0.1,0.1-0.2L19.9,20.9z M20.8,18.2L20.8,18.2
					C20.8,18.2,20.8,18.2,20.8,18.2L20.8,18.2L20.8,18.2L20.8,18.2C20.7,18.1,20.7,18.1,20.8,18.2L20.8,18.2L20.8,18.2L20.8,18.2
					L20.8,18.2L20.8,18.2L20.8,18.2L20.8,18.2L20.8,18.2L20.8,18.2L20.8,18.2L20.8,18.2L20.8,18.2L20.8,18.2
					C20.7,18.1,20.7,18.1,20.8,18.2L20.8,18.2L20.8,18.2C20.7,18.1,20.7,18.1,20.8,18.2C20.7,18.1,20.7,18.1,20.8,18.2L20.8,18.2
					C20.7,18.1,20.7,18.1,20.8,18.2c-0.1-0.1-0.1-0.1-0.1-0.1c-0.1-0.1-0.3-0.2-0.5-0.3c0,0-0.1,0-0.1-0.1c0,0,0,0,0,0v0
					c-0.6,0.2-1.3,0.3-1.7,0.4v0.4c0,0.1,0,0.2,0,0.3c0.6-0.1,1.2-0.2,1.6-0.3c0-0.2,0-0.3,0-0.5C20.1,18,20.4,18,20.8,18.2
					c-0.1,0.1-0.1,0.1-0.1,0.1C20.7,18.2,20.7,18.2,20.8,18.2C20.8,18.2,20.8,18.2,20.8,18.2L20.8,18.2z M19.4,21.6L19.4,21.6
					L19.4,21.6L19.4,21.6C19.4,21.6,19.4,21.6,19.4,21.6L19.4,21.6C19.4,21.6,19.4,21.6,19.4,21.6c-0.1-0.2-0.2-0.4-0.5-0.6
					c0,0,0,0,0,0l0,0v0c-0.2-0.2-0.6-0.5-1-0.8c-0.2,0.4-0.4,0.7-0.8,1c-0.4,0.4-0.8,0.6-1.2,0.8c0.6-0.1,1.2-0.1,1.6-0.2
					c0.2,0,0.4-0.1,0.8-0.2c0.1-0.1,0.3-0.3,0.4-0.4C19.1,21.4,19.3,21.6,19.4,21.6c-0.1,0.1-0.1,0.1-0.1,0.1c0,0,0,0,0,0
					c0,0,0,0,0,0C19.4,21.8,19.4,21.8,19.4,21.6C19.4,21.6,19.4,21.6,19.4,21.6z"/>
				<path d="M9,14.5C9,14.5,9,14.4,9,14.5c0-0.1,0-0.2,0.1-0.2L9,14.5z M8.1,17.7v-0.1C8.1,17.6,8,17.6,8.1,17.7
					C8.1,17.7,8.1,17.7,8.1,17.7z M14.1,11.5C14,11.5,14,11.5,14.1,11.5l-0.2,0.7c0.1,0,0.1,0,0.2,0V11.5z M8.6,15.4
					c0-0.1,0-0.1,0.1-0.2c0.1,0,0.4,0.1,0.6,0.4c0,0.1-0.1,0.2-0.1,0.3c0.2,0.2,0.5,0.4,0.9,0.7c0.1,0,0.2,0,0.3-0.1
					c0.1,0,0.1,0,0.2,0v-0.8c-0.4-0.2-0.8-0.3-1.1-0.4c0,0,0,0,0,0c0,0,0,0,0,0c0,0,0,0,0,0c0,0,0,0,0,0c-0.3-0.1-0.5-0.1-0.6-0.1
					c0,0,0,0-0.1,0c0,0,0,0,0,0l0,0c0,0,0,0,0,0h0c0,0,0,0,0,0l0,0v0C8.6,15.2,8.5,15.3,8.6,15.4c0-0.1,0-0.1,0-0.1
					S8.5,15.3,8.6,15.4C8.5,15.4,8.5,15.4,8.6,15.4z M10.5,18.5v-0.4C10,18.1,9.4,18,8.8,17.8v0c0,0,0,0,0,0c-0.1,0-0.1,0.1-0.2,0.1
					c-0.1,0-0.1,0-0.1,0.1c0,0,0,0,0,0c0,0,0,0,0,0c-0.1,0.1-0.2,0.1-0.3,0.2c0,0,0,0,0,0c0,0,0,0,0,0l0,0c0,0,0,0,0,0l0,0l0,0h0
					l0,0l0,0v0h0c0,0,0,0,0,0l0,0v0v0h0h0v0v0l0,0h0v0c0,0,0,0,0,0v0v0h0v0h0v0v0l0,0c0,0,0,0,0,0l0,0l0,0v0v0l0,0v0l0,0
					c0,0,0,0,0,0v0v0h0v0v0v0v0l0,0v0v0l0,0v0l0,0v0v0l0,0v0v0h0l0,0v0l0,0h0c0,0,0,0,0,0l0,0v0c0,0,0,0,0.1,0c0,0,0-0.1,0-0.1
					C8.4,18,8.7,18,8.8,18c0,0.2,0,0.3,0,0.5c0.4,0.1,1,0.2,1.6,0.3C10.5,18.7,10.5,18.6,10.5,18.5z M14,24C14,24,14,24.1,14,24
					l0.1-0.7c-0.1,0-0.1,0-0.2,0L14,24z M11.6,21.3C11.6,21.3,11.6,21.3,11.6,21.3c-0.6-0.1-1.2-0.2-1.9-0.4c0,0,0,0,0,0
					c-0.3,0.1-0.5,0.2-0.6,0.4c0,0,0,0.1,0,0.1c0,0,0,0,0,0c0,0,0.1,0,0.1,0c0,0,0-0.1-0.1-0.1c0.3-0.2,0.7-0.1,0.8-0.1
					c0.1,0.2,0.3,0.4,0.5,0.6c0.7,0.2,1.5,0.3,2.4,0.4C12.4,21.9,12,21.6,11.6,21.3z M8.9,20.8C8.8,20.8,8.8,20.8,8.9,20.8
					C8.8,20.8,8.8,20.8,8.9,20.8C8.9,20.8,8.9,20.8,8.9,20.8C8.9,20.8,8.9,20.8,8.9,20.8L8.9,20.8z"/>
				<g>
					<g>
						<path class="st7" d="M14.4,22.5c-2.4,0-4-2-4-3.9v-5.4h8v5.4C18.4,20.5,16.8,22.5,14.4,22.5L14.4,22.5z"/>
						<path class="st2" d="M10.7,13.5v5.1c0,1.8,1.5,3.6,3.7,3.6c2.2,0,3.7-1.9,3.7-3.6v-5.1H10.7z M16.6,18.6
							c0,0.9-0.8,2.1-2.2,2.1c-1.4,0-2.2-1.2-2.2-2.1c0-0.5,0-3.6,0-3.6h4.4C16.6,15,16.6,18.1,16.6,18.6z"/>
					</g>
					<g>
						<path class="st6" d="M11.9,14.7L11.9,14.7l-0.1-0.3c0,0,0.1,0,0.1-0.1c0,0,0-0.1-0.1-0.1h0l0-0.2h0h0c0,0,0,0,0,0v-0.1h-0.1
							V14h-0.1v-0.1h-0.1V14h-0.1v-0.1h0V14c0,0,0,0,0,0h0h0l0,0.2h-0.1l0-0.3h0c0,0,0,0,0,0v-0.1h-0.1v0.1h-0.1v-0.1h-0.1v0.1h-0.1
							v-0.1h0v0.1c0,0,0,0,0,0h0l0,0.3h-0.1l0-0.2h0h0c0,0,0,0,0,0v-0.1h0V14h-0.1v-0.1h-0.1V14H11v-0.1h0V14c0,0,0,0,0,0h0h0l0,0.2
							h0c0,0-0.1,0-0.1,0.1c0,0,0,0.1,0.1,0.1l0,0.3h0c0,0-0.1,0-0.1,0.1c0,0,0,0.1,0.1,0.1h1C12,14.8,12,14.8,11.9,14.7
							C12,14.7,12,14.7,11.9,14.7z M11.2,14.7c0-0.3,0.2-0.3,0.2-0.3l0,0c0,0,0.2,0.1,0.2,0.3H11.2z"/>
						<path class="st6" d="M14.9,14.7L14.9,14.7l-0.1-0.3c0,0,0.1,0,0.1-0.1c0,0,0-0.1-0.1-0.1h0l0-0.2h0h0c0,0,0,0,0,0v-0.1h0V14
							h-0.1v-0.1h-0.1V14h-0.1v-0.1h0V14c0,0,0,0,0,0h0h0l0,0.2h-0.1l0-0.3h0c0,0,0,0,0,0v-0.1h0v0.1h-0.1v-0.1h-0.1v0.1h-0.1v-0.1
							h0v0.1c0,0,0,0,0,0h0l0,0.3h-0.1l0-0.2h0h0c0,0,0,0,0,0v-0.1h-0.1V14h-0.1v-0.1h0V14H14v-0.1h0V14c0,0,0,0,0,0h0h0l0,0.2h0
							c0,0-0.1,0-0.1,0.1c0,0,0,0.1,0.1,0.1l0,0.3h0c0,0-0.1,0-0.1,0.1c0,0,0,0.1,0.1,0.1h1C14.9,14.8,15,14.8,14.9,14.7
							C15,14.7,14.9,14.7,14.9,14.7z M14.2,14.7c0-0.3,0.2-0.3,0.2-0.3l0,0c0,0,0.2,0.1,0.2,0.3H14.2z"/>
						<path class="st6" d="M17.8,14.7L17.8,14.7l-0.1-0.3c0,0,0.1,0,0.1-0.1c0,0,0-0.1-0.1-0.1h0l0-0.2h0h0c0,0,0,0,0,0v-0.1h0V14
							h-0.1v-0.1h-0.1V14h-0.1v-0.1h0V14c0,0,0,0,0,0h0h0l0,0.2h-0.1l0-0.3h0c0,0,0,0,0,0v-0.1h0v0.1h-0.1v-0.1h-0.1v0.1h-0.1v-0.1
							h0v0.1c0,0,0,0,0,0h0l0,0.3h-0.1l0-0.2h0h0c0,0,0,0,0,0v-0.1h-0.1V14H17v-0.1H17V14h-0.1v-0.1h0V14c0,0,0,0,0,0h0h0l0,0.2h0
							c0,0-0.1,0-0.1,0.1c0,0,0,0.1,0.1,0.1l0,0.3h0c0,0-0.1,0-0.1,0.1c0,0,0,0.1,0.1,0.1h1C17.9,14.8,17.9,14.8,17.8,14.7
							C17.9,14.7,17.9,14.7,17.8,14.7z M17.1,14.7c0-0.3,0.2-0.3,0.2-0.3h0c0,0,0.2,0.1,0.2,0.3H17.1z"/>
						<path class="st6" d="M11.9,17.7L11.9,17.7l-0.1-0.3c0,0,0.1,0,0.1-0.1c0,0,0-0.1-0.1-0.1h0l0-0.1h0h0c0,0,0,0,0,0v-0.1h-0.1
							V17h-0.1v-0.1h-0.1V17h-0.1v-0.1h0v0.1c0,0,0,0,0,0h0h0l0,0.1h-0.1l0-0.3h0c0,0,0,0,0,0v-0.1h-0.1v0.1h-0.1v-0.1h-0.1v0.1
							h-0.1v-0.1h0v0.1c0,0,0,0,0,0h0l0,0.3h-0.1l0-0.1h0h0c0,0,0,0,0,0v-0.1h0V17h-0.1v-0.1h-0.1V17H11v-0.1h0v0.1c0,0,0,0,0,0h0h0
							l0,0.1h0c0,0-0.1,0-0.1,0.1c0,0,0,0.1,0.1,0.1l0,0.3h0c0,0-0.1,0-0.1,0.1c0,0,0,0.1,0.1,0.1h1C12,17.9,12,17.9,11.9,17.7
							C12,17.8,12,17.7,11.9,17.7z M11.2,17.7c0-0.3,0.2-0.3,0.2-0.3l0,0c0,0,0.2,0.1,0.2,0.3H11.2z"/>
						<path class="st6" d="M17.8,17.7L17.8,17.7l-0.1-0.3c0,0,0.1,0,0.1-0.1c0,0,0-0.1-0.1-0.1h0l0-0.1h0h0c0,0,0,0,0,0v-0.1h0V17
							h-0.1v-0.1h-0.1V17h-0.1v-0.1h0v0.1c0,0,0,0,0,0h0h0l0,0.1h-0.1l0-0.3h0c0,0,0,0,0,0v-0.1h0v0.1h-0.1v-0.1h-0.1v0.1h-0.1v-0.1
							h0v0.1c0,0,0,0,0,0h0l0,0.3h-0.1l0-0.1h0h0c0,0,0,0,0,0v-0.1h-0.1V17H17v-0.1H17V17h-0.1v-0.1h0v0.1c0,0,0,0,0,0h0h0l0,0.1h0
							c0,0-0.1,0-0.1,0.1c0,0,0,0.1,0.1,0.1l0,0.3h0c0,0-0.1,0-0.1,0.1c0,0,0,0.1,0.1,0.1h1C17.9,17.9,17.9,17.9,17.8,17.7
							C17.9,17.8,17.9,17.7,17.8,17.7z M17.1,17.7c0-0.3,0.2-0.3,0.2-0.3h0c0,0,0.2,0.1,0.2,0.3H17.1z"/>
						<path class="st6" d="M12.8,20.4L12.8,20.4l-0.3-0.2c0,0,0-0.1,0-0.1c0,0-0.1,0-0.1,0l0,0L12.3,20l0,0l0,0c0,0,0,0,0,0
							l-0.1-0.1l0,0l0,0L12.2,20l0,0l0,0l0,0l-0.1,0.1l0,0l0,0l0.1,0.1c0,0,0,0,0,0l0,0l0,0l0.1,0.1l-0.1,0.1l-0.2-0.2l0,0
							c0,0,0,0,0,0L11.9,20l0,0l0,0l-0.1,0l0,0l0,0l0,0l-0.1,0.1l0,0l0,0l0.1,0.1c0,0,0,0,0,0l0,0l0.2,0.2l-0.1,0.1l-0.1-0.1l0,0
							l0,0c0,0,0,0,0,0l-0.1-0.1l0,0l0,0l0,0.1l0,0l0,0l0,0l0,0l0,0l0,0l0.1,0.1c0,0,0,0,0,0l0,0l0,0l0.1,0.1l0,0c0,0,0,0.1,0,0.1
							c0,0,0.1,0,0.1,0l0.2,0.3l0,0c0,0,0,0.1,0,0.1c0,0,0.1,0,0.1,0l0.7-0.7c0,0,0-0.1,0-0.1C12.9,20.4,12.8,20.4,12.8,20.4z
							 M12.3,20.9c-0.2-0.2-0.1-0.4-0.1-0.4v0c0,0,0.2-0.1,0.4,0.1L12.3,20.9z"/>
						<path class="st6" d="M15.9,20.4c0,0,0,0.1,0,0.1l0.7,0.7c0,0,0.1,0,0.1,0c0,0,0-0.1,0-0.1l0,0l0.2-0.3c0,0,0.1,0,0.1,0
							c0,0,0-0.1,0-0.1l0,0l0.1-0.1l0,0l0,0c0,0,0,0,0,0l0.1-0.1l0,0l0,0l-0.1,0l0,0l0,0l0,0l-0.1-0.1l0,0l0,0L17,20.4c0,0,0,0,0,0
							l0,0l0,0l-0.1,0.1l-0.1-0.1l0.2-0.2l0,0c0,0,0,0,0,0l0.1-0.1l0,0l0,0L17,20.1l0,0l0,0l0,0l-0.1,0l0,0l0,0L16.9,20c0,0,0,0,0,0
							l0,0l-0.2,0.2l-0.1-0.1l0.1-0.1l0,0l0,0c0,0,0,0,0,0l0.1-0.1l0,0l0,0l0-0.1l0,0l0,0l0,0l-0.1-0.1l0,0l0,0l-0.1,0.1
							c0,0,0,0,0,0l0,0l0,0l-0.1,0.1l0,0c0,0-0.1,0-0.1,0c0,0,0,0.1,0,0.1L16,20.4l0,0C16,20.4,16,20.4,15.9,20.4z M16.2,20.6
							c0.2-0.2,0.4-0.1,0.4-0.1l0,0c0,0,0.1,0.2-0.1,0.4L16.2,20.6z"/>
					</g>
					<g>
						<path class="st8" d="M14.7,19.6C14.6,19.6,14.6,19.7,14.7,19.6c-0.1,0.2-0.1,0.2,0,0.2C14.7,19.8,14.8,19.8,14.7,19.6
							C14.8,19.7,14.7,19.6,14.7,19.6"/>
						<path class="st8" d="M14.1,19.6C14.1,19.6,14,19.7,14.1,19.6c-0.1,0.1,0,0.2,0,0.2C14.2,19.8,14.2,19.8,14.1,19.6
							C14.2,19.7,14.2,19.6,14.1,19.6"/>
						<g>
							<path class="st9" d="M14.4,16.8c0.2,0,0.5-0.2,0.5-0.5c0-0.4,0-0.7,0-0.7h-1c0,0,0,0.3,0,0.7C13.9,16.6,14.2,16.8,14.4,16.8z
								"/>
							<g>
								<circle class="st8" cx="14.1" cy="15.8" r="0.1"/>
								<circle class="st8" cx="14.4" cy="16.1" r="0.1"/>
								<circle class="st8" cx="14.6" cy="16.3" r="0.1"/>
								<circle class="st8" cx="14.6" cy="15.8" r="0.1"/>
								<circle class="st8" cx="14.1" cy="16.3" r="0.1"/>
							</g>
						</g>
						<g>
							<path class="st9" d="M14.4,18.5c0.2,0,0.5-0.2,0.5-0.5c0-0.4,0-0.7,0-0.7h-1c0,0,0,0.3,0,0.7C13.9,18.3,14.2,18.5,14.4,18.5z
								"/>
							<g>
								<circle class="st8" cx="14.1" cy="17.5" r="0.1"/>
								<circle class="st8" cx="14.4" cy="17.8" r="0.1"/>
								<circle class="st8" cx="14.6" cy="18" r="0.1"/>
								<circle class="st8" cx="14.6" cy="17.5" r="0.1"/>
								<circle class="st8" cx="14.1" cy="18" r="0.1"/>
							</g>
						</g>
						<g>
							<path class="st9" d="M13,18.5c0.2,0,0.5-0.2,0.5-0.5c0-0.4,0-0.7,0-0.7h-1c0,0,0,0.3,0,0.7C12.6,18.3,12.8,18.5,13,18.5z"/>
							<g>
								<circle class="st8" cx="12.8" cy="17.5" r="0.1"/>
								<circle class="st8" cx="13" cy="17.8" r="0.1"/>
								<circle class="st8" cx="13.3" cy="18" r="0.1"/>
								<circle class="st8" cx="13.3" cy="17.5" r="0.1"/>
								<circle class="st8" cx="12.8" cy="18" r="0.1"/>
							</g>
						</g>
						<g>
							<path class="st9" d="M15.7,18.5c0.2,0,0.5-0.2,0.5-0.5c0-0.4,0-0.7,0-0.7h-1c0,0,0,0.3,0,0.7C15.3,18.3,15.5,18.5,15.7,18.5z
								"/>
							<g>
								<circle class="st8" cx="15.5" cy="17.5" r="0.1"/>
								<ellipse class="st8" cx="15.7" cy="17.8" rx="0.1" ry="0.1"/>
								<circle class="st8" cx="16" cy="18" r="0.1"/>
								<circle class="st8" cx="16" cy="17.5" r="0.1"/>
								<circle class="st8" cx="15.5" cy="18" r="0.1"/>
							</g>
						</g>
						<g>
							<path class="st9" d="M14.4,20.2c0.2,0,0.5-0.2,0.5-0.5c0-0.4,0-0.7,0-0.7h-1c0,0,0,0.3,0,0.7C13.9,20,14.2,20.2,14.4,20.2z"
								/>
							<g>
								<circle class="st8" cx="14.1" cy="19.2" r="0.1"/>
								<circle class="st8" cx="14.4" cy="19.5" r="0.1"/>
								<circle class="st8" cx="14.6" cy="19.7" r="0.1"/>
								<circle class="st8" cx="14.6" cy="19.2" r="0.1"/>
								<circle class="st8" cx="14.1" cy="19.7" r="0.1"/>
							</g>
						</g>
					</g>
				</g>
			</g>
		</g>
		<path class="st10" d="M37.9,46.3c0,0.2,0,0.4-0.1,0.6c-0.1,0.2-0.2,0.4-0.4,0.5c-0.2,0.1-0.4,0.2-0.6,0.3
			c-0.2,0.1-0.5,0.1-0.8,0.1c-0.4,0-0.8,0-1.1-0.1l0.1-0.9c0.2,0.1,0.3,0.1,0.5,0.2c0.2,0,0.4,0.1,0.6,0.1c0.1,0,0.2,0,0.3,0
			c0.1,0,0.2-0.1,0.3-0.1c0.1,0,0.1-0.1,0.2-0.2c0-0.1,0.1-0.2,0.1-0.3c0-0.2,0-0.3-0.1-0.4c-0.1-0.1-0.2-0.2-0.4-0.2
			c-0.1-0.1-0.3-0.1-0.5-0.2c-0.2-0.1-0.3-0.1-0.5-0.2c-0.1-0.1-0.3-0.2-0.4-0.4c-0.1-0.2-0.1-0.4-0.1-0.6c0-0.2,0-0.4,0.1-0.6
			c0.1-0.2,0.2-0.3,0.4-0.5c0.2-0.1,0.3-0.2,0.6-0.3c0.2-0.1,0.5-0.1,0.8-0.1c0.1,0,0.3,0,0.4,0c0.2,0,0.3,0,0.4,0.1l-0.1,0.8
			c-0.1,0-0.3-0.1-0.4-0.1c-0.1,0-0.3,0-0.4,0c-0.3,0-0.5,0.1-0.6,0.2c-0.1,0.1-0.2,0.2-0.2,0.4c0,0.1,0.1,0.3,0.2,0.3
			c0.1,0.1,0.2,0.2,0.4,0.2c0.2,0.1,0.3,0.1,0.5,0.2c0.2,0.1,0.3,0.2,0.5,0.3c0.2,0.1,0.3,0.2,0.4,0.4C37.8,45.8,37.9,46,37.9,46.3z
			"/>
		<path class="st10" d="M41.6,47.7l-0.3-1h-1.8l-0.3,1h-0.9l1.7-4.8h1l1.7,4.8H41.6z M40.5,44.7c0-0.1-0.1-0.2-0.1-0.3
			c0-0.1-0.1-0.2-0.1-0.3h0c0,0.1-0.1,0.2-0.1,0.3c0,0.1-0.1,0.2-0.1,0.3L39.7,46H41L40.5,44.7z"/>
		<path class="st10" d="M46.9,45.9c0,0.7-0.2,1.1-0.5,1.5c-0.3,0.3-0.8,0.5-1.5,0.5c-0.4,0-0.7,0-0.9-0.1c-0.2-0.1-0.4-0.2-0.6-0.4
			c-0.1-0.2-0.2-0.3-0.3-0.6c-0.1-0.2-0.1-0.4-0.1-0.7v-3.1h0.9V46c0,0.2,0,0.3,0,0.4c0,0.1,0.1,0.2,0.2,0.3
			c0.1,0.1,0.2,0.2,0.3,0.2c0.1,0,0.3,0.1,0.5,0.1c0.4,0,0.6-0.1,0.8-0.3c0.2-0.2,0.2-0.5,0.2-0.9v-3h0.9V45.9z M44.6,42.7l-0.1-0.5
			l1.5-0.5l0.2,0.7L44.6,42.7z"/>
		<path class="st10" d="M52,45.3c0,0.4-0.1,0.8-0.2,1.1c-0.1,0.3-0.3,0.6-0.5,0.8c-0.2,0.2-0.5,0.4-0.8,0.5
			c-0.3,0.1-0.7,0.2-1.1,0.2c-0.3,0-0.5,0-0.7,0c-0.2,0-0.4,0-0.6,0V43c0.2,0,0.4,0,0.7,0c0.3,0,0.6,0,0.9,0c0.4,0,0.7,0,1,0.1
			c0.3,0.1,0.6,0.2,0.8,0.4c0.2,0.2,0.4,0.4,0.5,0.7C52,44.5,52,44.8,52,45.3z M51,45.3c0-0.3,0-0.5-0.1-0.7
			c-0.1-0.2-0.1-0.4-0.3-0.5c-0.1-0.1-0.3-0.2-0.5-0.3c-0.2-0.1-0.4-0.1-0.7-0.1c-0.1,0-0.2,0-0.3,0c-0.1,0-0.2,0-0.3,0v3.2
			c0.1,0,0.1,0,0.2,0c0.1,0,0.2,0,0.3,0c0.2,0,0.4,0,0.6-0.1s0.4-0.2,0.5-0.3c0.1-0.1,0.2-0.3,0.3-0.5C51,45.9,51,45.6,51,45.3z"/>
		<path class="st10" d="M52.9,47.7v-4.8h2.6v0.8h-1.7v1.2h1.6v0.8h-1.6V47h1.7v0.8H52.9z"/>
		<path class="st10" d="M40.1,18.2l-2.4-3.9h-0.2v2.8c0.3,0,0.6,0.1,0.9,0.2v0.9h-3.5v-0.9c0.2,0,0.4-0.1,0.6-0.1
			c0.2,0,0.4,0,0.6-0.1v-6.8c-0.2,0-0.4,0-0.6-0.1c-0.2,0-0.4-0.1-0.6-0.1V9.3h1c0.1,0,0.2,0,0.4,0c0.2,0,0.4,0,0.6,0
			c0.2,0,0.5,0,0.7,0c0.3,0,0.5,0,0.8,0c0.5,0,0.9,0,1.3,0.1c0.4,0.1,0.7,0.2,1,0.4c0.3,0.2,0.5,0.4,0.6,0.7
			c0.1,0.3,0.2,0.7,0.2,1.1c0,0.3-0.1,0.6-0.2,0.9c-0.1,0.3-0.3,0.5-0.5,0.7c-0.2,0.2-0.5,0.4-0.7,0.5c-0.3,0.1-0.6,0.2-0.9,0.3
			c0.1,0.1,0.2,0.2,0.3,0.4c0.1,0.1,0.2,0.3,0.2,0.4l1.5,2.3c0.1,0,0.3,0,0.4,0.1c0.2,0,0.3,0.1,0.5,0.1v0.9H40.1z M39.6,10.7
			c-0.3-0.2-0.7-0.3-1.4-0.3c-0.1,0-0.3,0-0.4,0c-0.1,0-0.2,0-0.3,0v2.8c0.1,0,0.2,0,0.3,0c0.1,0,0.3,0,0.4,0c0.6,0,1-0.1,1.4-0.4
			c0.3-0.3,0.5-0.6,0.5-1.1C40,11.3,39.9,11,39.6,10.7z"/>
		<path class="st10" d="M42.8,18.2v-0.9c0.2,0,0.4-0.1,0.6-0.1c0.2,0,0.4,0,0.6-0.1v-6.8c-0.2,0-0.4,0-0.6-0.1
			c-0.2,0-0.4-0.1-0.6-0.1V9.3h5.9v2.1h-1c0-0.2-0.1-0.4-0.1-0.5c0-0.2,0-0.3-0.1-0.5h-2.1v2.7h1.7c0-0.1,0-0.3,0.1-0.4
			c0-0.1,0.1-0.3,0.1-0.4h0.9V15h-0.9c0-0.1-0.1-0.3-0.1-0.4c0-0.1,0-0.3-0.1-0.4h-1.7V17h2.1c0-0.2,0-0.3,0.1-0.5
			c0-0.2,0.1-0.4,0.1-0.6h1v2.2H42.8z"/>
		<path class="st10" d="M56.3,13.1c-0.2,0.4-0.4,0.7-0.7,1c-0.3,0.3-0.7,0.5-1.1,0.6c-0.4,0.2-0.9,0.2-1.4,0.2c-0.1,0-0.2,0-0.3,0
			c-0.1,0-0.2,0-0.3,0v2.2c0.2,0,0.4,0,0.6,0.1c0.2,0,0.4,0.1,0.6,0.1v0.9h-3.7v-0.9c0.2,0,0.4-0.1,0.6-0.1c0.2,0,0.4,0,0.6-0.1
			v-6.8c-0.2,0-0.4,0-0.6-0.1c-0.2,0-0.4-0.1-0.6-0.1V9.3h1c0.1,0,0.2,0,0.4,0c0.2,0,0.4,0,0.6,0c0.2,0,0.4,0,0.7,0
			c0.2,0,0.5,0,0.7,0c1.1,0,1.9,0.2,2.4,0.7c0.6,0.5,0.8,1.1,0.8,2C56.5,12.4,56.5,12.8,56.3,13.1z M54.6,10.8
			c-0.3-0.3-0.8-0.4-1.4-0.4c-0.1,0-0.3,0-0.4,0c-0.1,0-0.2,0-0.4,0v3.3c0.1,0,0.2,0,0.3,0c0.1,0,0.2,0,0.3,0c0.6,0,1.1-0.2,1.5-0.5
			c0.4-0.3,0.5-0.7,0.5-1.2C55.1,11.5,54.9,11.1,54.6,10.8z"/>
		<path class="st10" d="M65,10.3v4.5c0,1.2-0.3,2.1-0.9,2.7c-0.6,0.6-1.5,0.9-2.7,0.9c-0.7,0-1.3-0.1-1.7-0.3
			c-0.4-0.2-0.8-0.4-1-0.7c-0.2-0.3-0.4-0.6-0.5-1C58,16,58,15.6,58,15.2v-4.8c-0.1,0-0.3,0-0.4-0.1c-0.1,0-0.3-0.1-0.4-0.1V9.3h3.3
			v0.9c-0.2,0-0.3,0.1-0.5,0.1c-0.2,0-0.3,0-0.5,0.1v4.7c0,0.3,0,0.6,0.1,0.8c0.1,0.3,0.2,0.5,0.3,0.7c0.1,0.2,0.4,0.3,0.6,0.4
			c0.3,0.1,0.6,0.2,1,0.2c0.4,0,0.7,0,0.9-0.1c0.3-0.1,0.5-0.2,0.7-0.4c0.2-0.2,0.3-0.4,0.4-0.7c0.1-0.3,0.1-0.6,0.1-1.1v-4.5
			c-0.2,0-0.3,0-0.5-0.1c-0.2,0-0.3-0.1-0.5-0.1V9.3h3.3v0.9C65.6,10.3,65.3,10.3,65,10.3z M61.3,8.7l-0.5-0.8l2.1-1.5l0.6,1
			L61.3,8.7z"/>
		<path class="st10" d="M73.6,16.4c-0.1,0.3-0.3,0.6-0.6,0.9c-0.3,0.3-0.6,0.5-1.1,0.7c-0.4,0.2-1,0.3-1.7,0.3c-0.3,0-0.6,0-1,0
			s-0.9,0-1.4,0h-1.1v-0.9c0.2,0,0.4-0.1,0.6-0.1c0.2,0,0.4,0,0.6-0.1v-6.8c-0.2,0-0.4,0-0.6-0.1c-0.2,0-0.4-0.1-0.6-0.1V9.3h1.1
			c0.3,0,0.8,0,1.3,0c0.5,0,1,0,1.6,0c1,0,1.7,0.2,2.2,0.6c0.5,0.4,0.7,0.9,0.7,1.6c0,0.5-0.1,0.9-0.4,1.2s-0.6,0.6-1.1,0.8v0
			c0.3,0.1,0.5,0.1,0.8,0.3c0.2,0.1,0.4,0.3,0.5,0.5c0.1,0.2,0.2,0.4,0.3,0.6c0.1,0.2,0.1,0.4,0.1,0.7
			C73.8,15.8,73.7,16.1,73.6,16.4z M72,11.1c-0.1-0.1-0.1-0.3-0.3-0.4c-0.1-0.1-0.3-0.2-0.5-0.3c-0.2-0.1-0.5-0.1-0.8-0.1
			c-0.2,0-0.4,0-0.6,0c-0.2,0-0.4,0-0.5,0v2.6c0.1,0,0.2,0,0.4,0c0.1,0,0.3,0,0.4,0c0.7,0,1.2-0.1,1.5-0.4c0.3-0.3,0.5-0.6,0.5-1.1
			C72.1,11.5,72.1,11.3,72,11.1z M72.1,14.9c-0.1-0.2-0.3-0.3-0.4-0.4c-0.2-0.1-0.4-0.2-0.7-0.2c-0.3,0-0.6-0.1-0.9-0.1
			c0,0-0.1,0-0.2,0c-0.1,0-0.1,0-0.2,0c-0.1,0-0.2,0-0.2,0c-0.1,0-0.1,0-0.2,0V17c0.2,0,0.6,0.1,1,0.1c0.7,0,1.1-0.1,1.5-0.4
			c0.3-0.3,0.5-0.7,0.5-1.1C72.3,15.3,72.2,15.1,72.1,14.9z"/>
		<path class="st10" d="M74.8,18.2v-0.9c0.2,0,0.4-0.1,0.6-0.1c0.2,0,0.4,0,0.6-0.1v-6.8c-0.2,0-0.4,0-0.6-0.1
			c-0.2,0-0.4-0.1-0.6-0.1V9.3h3.7v0.9c-0.2,0-0.4,0.1-0.6,0.1c-0.2,0-0.4,0-0.6,0.1V17h2c0-0.3,0.1-0.7,0.2-1.1h1v2.3H74.8z"/>
		<path class="st10" d="M81.2,18.2v-0.9c0.2,0,0.4-0.1,0.6-0.1c0.2,0,0.4,0,0.6-0.1v-6.8c-0.2,0-0.4,0-0.6-0.1
			c-0.2,0-0.4-0.1-0.6-0.1V9.3h3.7v0.9c-0.2,0-0.4,0.1-0.6,0.1c-0.2,0-0.4,0-0.6,0.1v6.8c0.2,0,0.4,0,0.6,0.1c0.2,0,0.4,0.1,0.6,0.1
			v0.9H81.2z"/>
		<path class="st10" d="M91.2,11.8c0-0.2-0.1-0.4-0.1-0.6c0-0.2,0-0.4-0.1-0.5c-0.2-0.1-0.4-0.1-0.6-0.1c-0.2,0-0.4,0-0.6,0
			c-0.4,0-0.8,0.1-1.1,0.2c-0.3,0.2-0.6,0.4-0.8,0.7c-0.2,0.3-0.4,0.6-0.5,1c-0.1,0.4-0.2,0.8-0.2,1.3c0,0.5,0.1,1,0.2,1.4
			c0.1,0.4,0.3,0.7,0.5,1c0.2,0.3,0.5,0.5,0.9,0.6c0.4,0.1,0.8,0.2,1.3,0.2c0.3,0,0.7,0,1-0.1c0.4-0.1,0.7-0.2,1-0.3l0.1,1.3
			c-0.4,0.1-0.8,0.2-1.2,0.3c-0.4,0.1-0.8,0.1-1.3,0.1c-1.4,0-2.4-0.4-3.1-1.1c-0.7-0.8-1-1.8-1-3.2c0-0.7,0.1-1.4,0.3-1.9
			c0.2-0.6,0.5-1.1,0.8-1.5c0.4-0.4,0.8-0.8,1.4-1c0.6-0.2,1.2-0.4,2-0.4c0.3,0,0.7,0,1,0.1c0.4,0,0.7,0.1,1,0.2v2.3H91.2z"/>
		<path class="st10" d="M98.7,18.2v-0.9c0.1,0,0.3-0.1,0.5-0.1c0.2,0,0.3,0,0.5-0.1l-0.5-1.3h-3.5l-0.4,1.3c0.2,0,0.3,0,0.5,0.1
			c0.2,0,0.3,0.1,0.5,0.1v0.9h-3.2v-0.9c0.1,0,0.2-0.1,0.4-0.1c0.1,0,0.3,0,0.4-0.1l2.8-7.9h1.7l2.9,7.9c0.1,0,0.3,0,0.4,0.1
			c0.1,0,0.3,0.1,0.4,0.1v0.9H98.7z M97.9,12.1c-0.1-0.2-0.2-0.5-0.2-0.7c-0.1-0.2-0.1-0.5-0.2-0.7h0c0,0.2-0.1,0.5-0.2,0.7
			c-0.1,0.2-0.1,0.5-0.2,0.7l-1,2.7h2.8L97.9,12.1z"/>
		<path class="st10" d="M41.4,25.8c-0.2,0.4-0.4,0.7-0.7,1c-0.3,0.3-0.7,0.5-1.1,0.6c-0.4,0.2-0.9,0.2-1.4,0.2c-0.1,0-0.2,0-0.3,0
			c-0.1,0-0.2,0-0.3,0v2.2c0.2,0,0.4,0,0.6,0.1c0.2,0,0.4,0.1,0.6,0.1v0.9h-3.7V30c0.2,0,0.4-0.1,0.6-0.1c0.2,0,0.4,0,0.6-0.1V23
			c-0.2,0-0.4,0-0.6-0.1c-0.2,0-0.4-0.1-0.6-0.1V22h1c0.1,0,0.2,0,0.4,0c0.2,0,0.4,0,0.6,0c0.2,0,0.4,0,0.7,0c0.2,0,0.5,0,0.7,0
			c1.1,0,1.9,0.2,2.4,0.7c0.6,0.5,0.8,1.1,0.8,2C41.6,25,41.5,25.4,41.4,25.8z M39.7,23.5c-0.3-0.3-0.8-0.4-1.4-0.4
			c-0.1,0-0.3,0-0.4,0c-0.1,0-0.2,0-0.4,0v3.3c0.1,0,0.2,0,0.3,0c0.1,0,0.2,0,0.3,0c0.6,0,1.1-0.2,1.5-0.5c0.4-0.3,0.5-0.7,0.5-1.2
			C40.1,24.2,40,23.8,39.7,23.5z"/>
		<path class="st10" d="M50.3,28.3c-0.2,0.6-0.5,1.1-0.9,1.5c-0.4,0.4-0.8,0.7-1.4,0.9c-0.5,0.2-1.1,0.3-1.7,0.3
			c-0.7,0-1.3-0.1-1.8-0.3c-0.5-0.2-0.9-0.5-1.3-0.9c-0.3-0.4-0.6-0.9-0.7-1.4c-0.2-0.5-0.2-1.2-0.2-1.9c0-0.7,0.1-1.4,0.3-2
			c0.2-0.6,0.5-1.1,0.9-1.5c0.4-0.4,0.8-0.7,1.4-0.9c0.5-0.2,1.1-0.3,1.7-0.3c0.6,0,1.1,0.1,1.6,0.3c0.5,0.2,0.9,0.5,1.3,0.8
			c0.4,0.4,0.6,0.8,0.8,1.4c0.2,0.6,0.3,1.2,0.3,2C50.6,27.1,50.5,27.7,50.3,28.3z M48.4,24c-0.5-0.6-1.1-0.9-1.9-0.9
			c-0.3,0-0.7,0.1-1,0.2c-0.3,0.1-0.6,0.3-0.8,0.6c-0.2,0.3-0.4,0.6-0.6,1c-0.1,0.4-0.2,0.9-0.2,1.4c0,0.5,0.1,1,0.2,1.4
			s0.3,0.8,0.5,1.1c0.2,0.3,0.5,0.5,0.8,0.7c0.3,0.2,0.7,0.2,1.2,0.2c0.3,0,0.6-0.1,1-0.2c0.3-0.1,0.6-0.3,0.9-0.6
			c0.3-0.3,0.5-0.6,0.6-1c0.2-0.4,0.2-0.9,0.2-1.4C49.1,25.4,48.9,24.6,48.4,24z"/>
		<path class="st10" d="M56.7,30.9L54.3,27H54v2.8c0.3,0,0.6,0.1,0.9,0.2v0.9h-3.5V30c0.2,0,0.4-0.1,0.6-0.1c0.2,0,0.4,0,0.6-0.1V23
			c-0.2,0-0.4,0-0.6-0.1c-0.2,0-0.4-0.1-0.6-0.1V22h1c0.1,0,0.2,0,0.4,0c0.2,0,0.4,0,0.6,0c0.2,0,0.5,0,0.7,0c0.3,0,0.5,0,0.8,0
			c0.5,0,0.9,0,1.3,0.1c0.4,0.1,0.7,0.2,1,0.4c0.3,0.2,0.5,0.4,0.6,0.7c0.1,0.3,0.2,0.7,0.2,1.1c0,0.3-0.1,0.6-0.2,0.9
			c-0.1,0.3-0.3,0.5-0.5,0.7c-0.2,0.2-0.5,0.4-0.7,0.5c-0.3,0.1-0.6,0.2-0.9,0.3c0.1,0.1,0.2,0.2,0.3,0.4c0.1,0.1,0.2,0.3,0.2,0.4
			l1.5,2.3c0.1,0,0.3,0,0.4,0.1c0.2,0,0.3,0.1,0.5,0.1v0.9H56.7z M56.1,23.4c-0.3-0.2-0.7-0.3-1.4-0.3c-0.1,0-0.3,0-0.4,0
			c-0.1,0-0.2,0-0.3,0V26c0.1,0,0.2,0,0.3,0c0.1,0,0.3,0,0.4,0c0.6,0,1-0.1,1.4-0.4c0.3-0.3,0.5-0.6,0.5-1.1
			C56.6,24,56.4,23.7,56.1,23.4z"/>
		<path class="st10" d="M65.3,24.3c0-0.2-0.1-0.4-0.1-0.6c0-0.2-0.1-0.4-0.1-0.5h-1.6v6.7c0.2,0,0.4,0,0.6,0.1
			c0.2,0,0.4,0.1,0.6,0.1v0.9h-3.7V30c0.2,0,0.4-0.1,0.6-0.1c0.2,0,0.4,0,0.6-0.1v-6.7h-1.6c0,0.2,0,0.3-0.1,0.5
			c0,0.2-0.1,0.4-0.1,0.6h-1V22h7.1v2.4H65.3z"/>
		<path class="st10" d="M74.8,23v4.5c0,1.2-0.3,2.1-0.9,2.7c-0.6,0.6-1.5,0.9-2.7,0.9c-0.7,0-1.3-0.1-1.7-0.3
			c-0.4-0.2-0.8-0.4-1-0.7c-0.2-0.3-0.4-0.6-0.5-1c-0.1-0.4-0.1-0.8-0.1-1.2V23c-0.1,0-0.3,0-0.4-0.1c-0.1,0-0.3-0.1-0.4-0.1V22h3.3
			v0.9c-0.2,0-0.3,0.1-0.5,0.1c-0.2,0-0.3,0-0.5,0.1v4.7c0,0.3,0,0.6,0.1,0.8c0.1,0.3,0.2,0.5,0.3,0.7c0.1,0.2,0.4,0.3,0.6,0.4
			c0.3,0.1,0.6,0.2,1,0.2c0.4,0,0.7,0,0.9-0.1c0.3-0.1,0.5-0.2,0.7-0.4c0.2-0.2,0.3-0.4,0.4-0.7c0.1-0.3,0.1-0.6,0.1-1.1V23
			c-0.2,0-0.3,0-0.5-0.1c-0.2,0-0.3-0.1-0.5-0.1V22h3.3v0.9C75.4,22.9,75.1,23,74.8,23z"/>
		<path class="st10" d="M84.4,27.3c-0.1,0-0.3,0-0.4,0.1v3.2c-0.4,0.2-0.9,0.3-1.5,0.4C82,31,81.5,31,81,31c-0.7,0-1.3-0.1-1.9-0.3
			c-0.5-0.2-1-0.5-1.4-0.9c-0.4-0.4-0.7-0.8-0.9-1.4c-0.2-0.5-0.3-1.2-0.3-1.8c0-0.7,0.1-1.3,0.3-1.9c0.2-0.6,0.5-1.1,1-1.5
			c0.4-0.4,0.9-0.7,1.5-1c0.6-0.2,1.3-0.3,2-0.3c0.4,0,0.8,0,1.2,0.1s0.8,0.1,1.2,0.2v2.2h-1.1c0-0.2-0.1-0.4-0.1-0.6
			c0-0.2,0-0.4-0.1-0.5c-0.2-0.1-0.4-0.1-0.7-0.1c-0.2,0-0.4,0-0.6,0c-0.4,0-0.9,0.1-1.3,0.2c-0.4,0.1-0.7,0.4-1,0.6
			c-0.3,0.3-0.5,0.6-0.7,1.1c-0.2,0.4-0.3,0.9-0.3,1.5c0,1,0.3,1.8,0.8,2.4c0.6,0.6,1.3,0.8,2.3,0.8c0.3,0,0.5,0,0.7-0.1
			c0.2,0,0.4-0.1,0.6-0.2v-2.2c-0.2,0-0.4,0-0.6-0.1c-0.2,0-0.4-0.1-0.5-0.1v-0.9h3.4v0.9C84.6,27.2,84.5,27.3,84.4,27.3z"/>
		<path class="st10" d="M93.3,23v4.5c0,1.2-0.3,2.1-0.9,2.7c-0.6,0.6-1.5,0.9-2.7,0.9c-0.7,0-1.3-0.1-1.7-0.3
			c-0.4-0.2-0.8-0.4-1-0.7c-0.2-0.3-0.4-0.6-0.5-1c-0.1-0.4-0.1-0.8-0.1-1.2V23c-0.1,0-0.3,0-0.4-0.1c-0.1,0-0.3-0.1-0.4-0.1V22h3.3
			v0.9c-0.2,0-0.3,0.1-0.5,0.1c-0.2,0-0.3,0-0.5,0.1v4.7c0,0.3,0,0.6,0.1,0.8s0.2,0.5,0.3,0.7c0.1,0.2,0.4,0.3,0.6,0.4
			c0.3,0.1,0.6,0.2,1,0.2c0.4,0,0.7,0,0.9-0.1c0.3-0.1,0.5-0.2,0.7-0.4c0.2-0.2,0.3-0.4,0.4-0.7c0.1-0.3,0.1-0.6,0.1-1.1V23
			c-0.2,0-0.3,0-0.5-0.1c-0.2,0-0.3-0.1-0.5-0.1V22h3.3v0.9C93.9,22.9,93.6,23,93.3,23z"/>
		<path class="st10" d="M95.1,30.9V30c0.2,0,0.4-0.1,0.6-0.1c0.2,0,0.4,0,0.6-0.1V23c-0.2,0-0.4,0-0.6-0.1c-0.2,0-0.4-0.1-0.6-0.1
			V22h5.9v2.1h-1c0-0.2-0.1-0.4-0.1-0.5c0-0.2,0-0.3-0.1-0.5h-2.1v2.7h1.7c0-0.1,0-0.3,0.1-0.4c0-0.1,0.1-0.3,0.1-0.4h0.9v2.7h-0.9
			c0-0.1-0.1-0.3-0.1-0.4c0-0.1,0-0.3-0.1-0.4h-1.7v2.9h2.1c0-0.2,0-0.3,0.1-0.5c0-0.2,0.1-0.4,0.1-0.6h1v2.2H95.1z"/>
		<path class="st10" d="M107.6,29.3c-0.2,0.3-0.4,0.6-0.7,0.9c-0.3,0.3-0.6,0.4-1.1,0.6c-0.4,0.1-0.9,0.2-1.4,0.2
			c-0.7,0-1.4-0.1-2-0.2v-2.2h1.1c0,0.2,0.1,0.4,0.1,0.6c0,0.2,0,0.4,0.1,0.5c0.1,0,0.3,0,0.4,0.1c0.1,0,0.3,0,0.4,0
			c0.3,0,0.5,0,0.7-0.1c0.2-0.1,0.4-0.1,0.6-0.2c0.2-0.1,0.3-0.3,0.4-0.4c0.1-0.2,0.1-0.4,0.1-0.6c0-0.3-0.1-0.6-0.3-0.7
			c-0.2-0.2-0.4-0.3-0.7-0.5c-0.3-0.1-0.6-0.3-1-0.4c-0.3-0.1-0.7-0.3-1-0.5c-0.3-0.2-0.5-0.4-0.7-0.7c-0.2-0.3-0.3-0.7-0.3-1.2
			c0-0.4,0.1-0.7,0.2-1c0.1-0.3,0.4-0.6,0.6-0.8c0.3-0.2,0.6-0.4,1-0.5c0.4-0.1,0.9-0.2,1.4-0.2c0.3,0,0.6,0,0.9,0
			c0.3,0,0.6,0.1,0.9,0.1v2.2h-1.1c0-0.2-0.1-0.4-0.1-0.6c0-0.2,0-0.4-0.1-0.5c-0.1,0-0.2,0-0.3,0c-0.1,0-0.2,0-0.3,0
			c-0.6,0-1,0.1-1.3,0.3c-0.3,0.2-0.4,0.5-0.4,0.9c0,0.3,0.1,0.5,0.3,0.7c0.2,0.2,0.4,0.3,0.7,0.5c0.3,0.1,0.6,0.3,1,0.4
			c0.3,0.1,0.7,0.3,1,0.5c0.3,0.2,0.5,0.4,0.7,0.7c0.2,0.3,0.3,0.7,0.3,1.1C107.9,28.6,107.8,29,107.6,29.3z"/>
		<path class="st10" d="M114,30.9V30c0.1,0,0.3-0.1,0.5-0.1c0.2,0,0.3,0,0.5-0.1l-0.5-1.3H111l-0.4,1.3c0.2,0,0.3,0,0.5,0.1
			c0.2,0,0.3,0.1,0.5,0.1v0.9h-3.2V30c0.1,0,0.2-0.1,0.4-0.1c0.1,0,0.3,0,0.4-0.1l2.8-7.9h1.7l2.9,7.9c0.1,0,0.3,0,0.4,0.1
			c0.1,0,0.3,0.1,0.4,0.1v0.9H114z M113.2,24.8c-0.1-0.2-0.2-0.5-0.2-0.7c-0.1-0.2-0.1-0.5-0.2-0.7h0c0,0.2-0.1,0.5-0.2,0.7
			c-0.1,0.2-0.1,0.5-0.2,0.7l-1,2.7h2.8L113.2,24.8z"/>
	</g>
</g>
</svg>
